<?xml version="1.0" encoding="UTF-8" standalone="no"?>
<!-- Created with Inkscape (http://www.inkscape.org/) -->

<svg
   xmlns:dc="http://purl.org/dc/elements/1.1/"
   xmlns:cc="http://creativecommons.org/ns#"
   xmlns:rdf="http://www.w3.org/1999/02/22-rdf-syntax-ns#"
   xmlns:svg="http://www.w3.org/2000/svg"
   xmlns="http://www.w3.org/2000/svg"
   xmlns:xlink="http://www.w3.org/1999/xlink"
   xmlns:sodipodi="http://sodipodi.sourceforge.net/DTD/sodipodi-0.dtd"
   xmlns:inkscape="http://www.inkscape.org/namespaces/inkscape"
   width="350"
   height="155.76776"
   id="svg2994"
   version="1.1"
   inkscape:version="0.48.4 r9939"
   sodipodi:docname="ccsiLogo.svg">
  <defs
     id="defs2996">
    <linearGradient
       id="linearGradient4012">
      <stop
         style="stop-color:#ffffff;stop-opacity:0;"
         offset="0"
         id="stop4014" />
      <stop
         id="stop4030"
         offset="0.5"
         style="stop-color:#90ccff;stop-opacity:1;" />
      <stop
         id="stop4026"
         offset="1"
         style="stop-color:#ffffff;stop-opacity:0;" />
    </linearGradient>
    <linearGradient
       inkscape:collect="always"
       xlink:href="#linearGradient4012"
       id="linearGradient4018"
       x1="13.21875"
       y1="174.15625"
       x2="13.21875"
       y2="424.15625"
       gradientUnits="userSpaceOnUse"
       spreadMethod="pad"
       gradientTransform="matrix(0.58333321,0,0,0.51922584,-141.44644,217.24638)" />
  </defs>
  <sodipodi:namedview
     id="base"
     pagecolor="#ffffff"
     bordercolor="#666666"
     borderopacity="1.0"
     inkscape:pageopacity="0.0"
     inkscape:pageshadow="2"
     inkscape:zoom="1.979899"
     inkscape:cx="301.93644"
     inkscape:cy="161.963"
     inkscape:document-units="px"
     inkscape:current-layer="layer1"
     showgrid="true"
     fit-margin-top="0"
     fit-margin-left="0"
     fit-margin-right="0"
     fit-margin-bottom="0"
     inkscape:window-width="1920"
     inkscape:window-height="1153"
     inkscape:window-x="-4"
     inkscape:window-y="-4"
     inkscape:window-maximized="1"
     showguides="true"
     inkscape:guide-bbox="true">
    <inkscape:grid
       type="xygrid"
       id="grid3004"
       empspacing="5"
       visible="true"
       enabled="true"
       snapvisiblegridlinesonly="true"
       spacingx="5px"
       spacingy="5px"
       originx="-6.0223083px"
       originy="-5.6862183px" />
  </sodipodi:namedview>
  <metadata
     id="metadata2999">
    <rdf:RDF>
      <cc:Work
         rdf:about="">
        <dc:format>image/svg+xml</dc:format>
        <dc:type
           rdf:resource="http://purl.org/dc/dcmitype/StillImage" />
        <dc:title />
      </cc:Work>
    </rdf:RDF>
  </metadata>
  <g
     inkscape:label="Layer 1"
     inkscape:groupmode="layer"
     id="layer1"
     transform="translate(336.44644,-293.38977)">
    <rect
       style="fill:url(#linearGradient4018);fill-opacity:1;stroke:none"
       id="rect3002"
       width="350"
       height="155.76776"
       x="-336.44644"
       y="293.38977" />
    <path
       sodipodi:type="arc"
       style="fill:#3771c8;stroke:none"
       id="path3016"
       sodipodi:cx="62.5"
       sodipodi:cy="137.5"
       sodipodi:rx="12.5"
       sodipodi:ry="12.5"
       d="M 75,137.5 C 75,144.40356 69.403559,150 62.5,150 55.596441,150 50,144.40356 50,137.5 50,130.59644 55.596441,125 62.5,125 c 6.903559,0 12.5,5.59644 12.5,12.5 z"
       transform="matrix(0.44439441,-0.25657123,0.25657123,0.44439441,-342.90794,304.22449)" />
    <path
       sodipodi:type="arc"
       style="fill:#3771c8;fill-opacity:1;stroke:none"
       id="path3012"
       sodipodi:cx="62.5"
       sodipodi:cy="67.5"
       sodipodi:rx="12.5"
       sodipodi:ry="12.5"
       d="M 75,67.5 C 75,74.403559 69.403559,80 62.5,80 55.596441,80 50,74.403559 50,67.5 50,60.596441 55.596441,55 62.5,55 69.403559,55 75,60.596441 75,67.5 z"
       transform="matrix(0.44439441,-0.25657123,0.25657123,0.44439441,-336.49366,315.33434)" />
    <path
       sodipodi:type="arc"
       style="fill:#000000;fill-opacity:0.62264153;stroke:none"
       id="path3014"
       sodipodi:cx="62.5"
       sodipodi:cy="102.5"
       sodipodi:rx="22.5"
       sodipodi:ry="22.5"
       d="M 85,102.5 C 85,114.92641 74.926407,125 62.5,125 50.073593,125 40,114.92641 40,102.5 40,90.073593 50.073593,80 62.5,80 74.926407,80 85,90.073593 85,102.5 z"
       transform="matrix(0.34564005,-0.19955537,0.19955541,0.34564013,-327.68454,316.33825)" />
    <path
       inkscape:connector-curvature="0"
       id="path5499"
       style="font-size:128px;font-style:normal;font-variant:normal;font-weight:normal;font-stretch:normal;line-height:0%;letter-spacing:15px;word-spacing:0px;fill:#000000;fill-opacity:1;stroke:none;font-family:Corbel;-inkscape-font-specification:Corbel"
       d="m -170.09365,345.78985 c -2.37329,4e-5 -4.59157,0.37955 -6.65481,1.13854 -2.06328,0.75906 -3.85393,1.89224 -5.37195,3.39956 -1.51807,1.50738 -2.7154,3.37822 -3.59201,5.6125 -0.87662,2.23433 -1.31494,4.83746 -1.31492,7.80938 -2e-5,2.9506 0.40623,5.51096 1.21872,7.68111 0.81246,2.17017 1.96702,3.96618 3.46371,5.388 1.49665,1.42183 3.29799,2.47484 5.40402,3.15903 2.10601,0.68417 4.45256,1.02628 7.03967,1.02628 0.70555,0 1.45388,-0.0375 2.24501,-0.11225 0.79107,-0.0749 1.5875,-0.18174 2.38931,-0.32072 0.80176,-0.13897 1.58216,-0.29931 2.34121,-0.48107 0.75898,-0.18173 1.43784,-0.37951 2.03654,-0.59333 l 0,4.61829 c -1.26151,0.49178 -2.7261,0.87129 -4.39378,1.13853 -1.66774,0.26727 -3.37822,0.4009 -5.13142,0.4009 -3.57065,0 -6.73502,-0.4971 -9.49313,-1.49132 -2.75816,-0.99421 -5.07264,-2.42138 -6.94346,-4.28153 -1.87084,-1.86014 -3.28733,-4.13185 -4.24948,-6.81518 -0.96213,-2.68329 -1.4432,-5.72472 -1.4432,-9.12431 0,-3.33539 0.5078,-6.40356 1.52339,-9.20449 1.01558,-2.80087 2.48018,-5.20623 4.39378,-7.21608 1.91359,-2.00976 4.2334,-3.5759 6.95951,-4.69844 2.72604,-1.12248 5.78885,-1.68371 9.18844,-1.68375 0.89799,4e-5 1.78528,0.0375 2.66192,0.11225 0.8766,0.0749 1.7158,0.18177 2.51761,0.32071 0.80176,0.13902 1.54475,0.30472 2.22895,0.4971 0.68417,0.19248 1.27214,0.39559 1.76394,0.60936 l 0,4.61829 c -1.28289,-0.42758 -2.68333,-0.78572 -4.20134,-1.07439 -1.51809,-0.28862 -3.04683,-0.43293 -4.58623,-0.43297 z" />
    <path
       inkscape:connector-curvature="0"
       id="path5501"
       style="font-size:128px;font-style:normal;font-variant:normal;font-weight:normal;font-stretch:normal;line-height:0%;letter-spacing:15px;word-spacing:0px;fill:#000000;fill-opacity:1;stroke:none;font-family:Corbel;-inkscape-font-specification:Corbel"
       d="m -123.65425,345.78985 c -2.37331,4e-5 -4.59157,0.37955 -6.65482,1.13854 -2.06327,0.75906 -3.85393,1.89224 -5.37194,3.39956 -1.51808,1.50738 -2.7154,3.37822 -3.59201,5.6125 -0.87663,2.23433 -1.31494,4.83746 -1.31493,7.80938 -1e-5,2.9506 0.40623,5.51096 1.21872,7.68111 0.81245,2.17017 1.96702,3.96618 3.46371,5.388 1.49665,1.42183 3.29799,2.47484 5.40402,3.15903 2.106,0.68417 4.45256,1.02628 7.03968,1.02628 0.70554,0 1.45387,-0.0375 2.24499,-0.11225 0.79108,-0.0749 1.58751,-0.18174 2.38932,-0.32072 0.80176,-0.13897 1.58217,-0.29931 2.34123,-0.48107 0.75898,-0.18173 1.43783,-0.37951 2.03653,-0.59333 l 0,4.61829 c -1.26151,0.49178 -2.72611,0.87129 -4.39379,1.13853 -1.66775,0.26727 -3.37823,0.4009 -5.13143,0.4009 -3.57064,0 -6.735,-0.4971 -9.49312,-1.49132 -2.75817,-0.99421 -5.07263,-2.42138 -6.94347,-4.28153 -1.87084,-1.86014 -3.28732,-4.13185 -4.24945,-6.81518 -0.96215,-2.68329 -1.44322,-5.72472 -1.44322,-9.12431 0,-3.33539 0.5078,-6.40356 1.52339,-9.20449 1.01559,-2.80087 2.48019,-5.20623 4.39378,-7.21608 1.91359,-2.00976 4.23342,-3.5759 6.9595,-4.69844 2.72604,-1.12248 5.78887,-1.68371 9.18844,-1.68375 0.89799,4e-5 1.78529,0.0375 2.66195,0.11225 0.87659,0.0749 1.71579,0.18177 2.5176,0.32071 0.80175,0.13902 1.54474,0.30472 2.22896,0.4971 0.68417,0.19248 1.27214,0.39559 1.76393,0.60936 l 0,4.61829 c -1.28289,-0.42758 -2.68334,-0.78572 -4.20135,-1.07439 -1.51808,-0.28862 -3.04682,-0.43293 -4.58622,-0.43297 z" />
    <path
       inkscape:connector-curvature="0"
       id="path5503"
       style="font-size:128px;font-style:normal;font-variant:normal;font-weight:normal;font-stretch:normal;line-height:0%;letter-spacing:15px;word-spacing:0px;fill:#000000;fill-opacity:1;stroke:none;font-family:Corbel;-inkscape-font-specification:Corbel"
       d="m -94.084407,353.29456 c -1e-5,1.2615 0.25655,2.30382 0.769715,3.12695 0.513131,0.8232 1.202654,1.50204 2.068595,2.03654 0.865917,0.53456 1.870821,0.97287 3.014714,1.31493 1.143863,0.34213 2.335846,0.66283 3.57596,0.96214 1.667694,0.40627 3.308678,0.85525 4.922964,1.34701 1.614236,0.49178 3.052094,1.17061 4.313603,2.03652 1.261445,0.86596 2.282388,1.9938 3.062824,3.38354 0.780362,1.38976 1.170572,3.17508 1.170602,5.35592 -3e-5,2.22362 -0.411622,4.14256 -1.234751,5.75682 -0.823203,1.61425 -1.967076,2.93989 -3.431633,3.97686 -1.464632,1.03696 -3.212513,1.80668 -5.243683,2.30913 -2.031211,0.50244 -4.254822,0.75368 -6.670856,0.75368 -1.111811,0 -2.250351,-0.0695 -3.415595,-0.20846 -1.165279,-0.13898 -2.27708,-0.32606 -3.335418,-0.56126 -1.058382,-0.23517 -2.015181,-0.50246 -2.870397,-0.80178 -0.855261,-0.29932 -1.528746,-0.59866 -2.020515,-0.898 l 0,-4.77864 c 0.769716,0.38488 1.635652,0.73766 2.597804,1.05837 0.962122,0.3207 1.956336,0.59332 2.982627,0.8178 1.026286,0.22452 2.063252,0.40091 3.110939,0.52918 1.047643,0.1283 2.031171,0.19244 2.950555,0.19244 1.496654,0 2.923826,-0.12828 4.281536,-0.38486 1.357666,-0.25657 2.549654,-0.68418 3.57597,-1.28284 1.026251,-0.59866 1.838719,-1.41649 2.437424,-2.45348 0.598631,-1.03697 0.897974,-2.33584 0.897994,-3.89668 -2e-5,-1.28284 -0.261943,-2.34118 -0.785745,-3.17506 -0.523865,-0.83384 -1.224089,-1.52338 -2.100681,-2.0686 -0.876632,-0.5452 -1.88689,-0.98886 -3.030743,-1.33098 -1.143912,-0.34207 -2.346586,-0.66278 -3.608031,-0.96212 -1.667734,-0.38486 -3.298023,-0.81782 -4.890892,-1.29891 -1.592895,-0.48105 -3.014724,-1.14919 -4.265498,-2.00446 -1.250789,-0.85521 -2.255704,-1.95632 -3.014714,-3.30335 -0.759025,-1.34697 -1.138545,-3.06815 -1.138545,-5.16349 0,-2.18083 0.384863,-4.057 1.154588,-5.62854 0.769696,-1.57147 1.817368,-2.87034 3.142992,-3.89667 1.325609,-1.02625 2.87572,-1.78526 4.650351,-2.27708 1.77461,-0.49172 3.666812,-0.73759 5.676641,-0.73763 2.287736,4e-5 4.42049,0.21919 6.398242,0.65746 1.977712,0.43835 3.789752,1.01029 5.436109,1.71582 l 0,4.84278 c -1.774649,-0.74831 -3.608061,-1.35766 -5.500243,-1.82807 -1.892247,-0.47034 -3.918094,-0.71622 -6.077538,-0.73764 -1.624961,4e-5 -3.036115,0.17642 -4.233426,0.52918 -1.197346,0.35282 -2.191555,0.85526 -2.982637,1.50735 -0.791111,0.65214 -1.379076,1.44326 -1.763929,2.37329 -0.384863,0.9301 -0.577289,1.96172 -0.577279,3.09489 z" />
    <path
       inkscape:connector-curvature="0"
       id="path5505"
       style="font-size:56px;font-style:normal;font-variant:normal;font-weight:normal;font-stretch:normal;line-height:0%;letter-spacing:0px;word-spacing:0px;fill:#000000;fill-opacity:1;stroke:none;font-family:Corbel;-inkscape-font-specification:Corbel"
       d="m -54.059305,384.85281 0,-42.91153 5.227645,0 0,42.91153 z" />
    <path
       inkscape:connector-curvature="0"
       id="path5507"
       style="font-size:24px;font-style:normal;font-variant:normal;font-weight:normal;font-stretch:normal;line-height:0%;letter-spacing:0px;word-spacing:0px;fill:#000000;fill-opacity:1;stroke:none;font-family:Corbel;-inkscape-font-specification:Corbel"
       d="m -39.438742,349.95914 -0.980192,0 0,-7.16195 -2.687994,0 0,-0.88398 6.356161,0 0,0.88398 -2.687975,0 z" />
    <path
       inkscape:connector-curvature="0"
       id="path5509"
       style="font-size:24px;font-style:normal;font-variant:normal;font-weight:normal;font-stretch:normal;line-height:0%;letter-spacing:0px;word-spacing:0px;fill:#000000;fill-opacity:1;stroke:none;font-family:Corbel;-inkscape-font-specification:Corbel"
       d="m -31.230472,349.95914 -0.451013,0 -2.026505,-4.80471 c -0.28063,-0.66147 -0.561246,-1.38107 -0.841876,-2.1588 l -0.04809,0 c 0.05612,1.1185 0.08413,2.14278 0.08413,3.07284 l 0,3.89067 -0.980172,0 0,-8.04593 1.41314,0 1.894209,4.55214 c 0.216482,0.52116 0.455007,1.14855 0.715595,1.88219 l 0.03,0 c 0.288632,-0.81381 0.527177,-1.4412 0.71559,-1.88219 l 1.894219,-4.55214 1.41315,0 0,8.04593 -0.980192,0 0,-3.89067 c 0,-0.91002 0.02812,-1.9343 0.08413,-3.07284 l -0.04809,0 c -0.296669,0.82183 -0.577289,1.54143 -0.841876,2.1588 z" />
    <path
       inkscape:connector-curvature="0"
       id="path5511"
       style="font-size:24px;font-style:normal;font-variant:normal;font-weight:normal;font-stretch:normal;line-height:0%;letter-spacing:0px;word-spacing:0px;fill:#000000;fill-opacity:1;stroke:none;font-family:Corbel;-inkscape-font-specification:Corbel"
       d="m -188.9837,393.41406 c -0.445,10e-6 -0.86092,0.0712 -1.24778,0.21347 -0.38685,0.14232 -0.72261,0.3548 -1.00724,0.63742 -0.28465,0.28263 -0.50912,0.63341 -0.6735,1.05234 -0.16436,0.41895 -0.24656,0.90702 -0.24656,1.46427 0,0.55322 0.0762,1.0333 0.22853,1.4402 0.15232,0.4069 0.36881,0.74366 0.64943,1.01024 0.28062,0.2666 0.61839,0.46405 1.01326,0.59232 0.39487,0.12829 0.83486,0.19244 1.31995,0.19244 0.13228,0 0.27259,-0.008 0.42092,-0.0211 0.14833,-0.014 0.29766,-0.034 0.44801,-0.0602 0.15032,-0.0262 0.29665,-0.0561 0.43898,-0.0902 0.14232,-0.0341 0.26958,-0.0711 0.38184,-0.11126 l 0,0.86594 c -0.23653,0.0923 -0.51114,0.16336 -0.82384,0.21346 -0.3127,0.05 -0.6334,0.0752 -0.96213,0.0752 -0.6695,0 -1.26281,-0.0933 -1.77996,-0.27962 -0.51716,-0.18642 -0.95111,-0.45401 -1.30192,-0.80278 -0.35076,-0.34878 -0.61636,-0.77473 -0.79675,-1.27786 -0.18041,-0.50311 -0.27062,-1.07338 -0.27061,-1.7108 -1e-5,-0.6254 0.0952,-1.20067 0.28563,-1.72584 0.19043,-0.52517 0.46504,-0.97617 0.82384,-1.35302 0.3588,-0.37683 0.79376,-0.67049 1.3049,-0.88095 0.51113,-0.21047 1.08543,-0.31569 1.72283,-0.3157 0.16838,10e-6 0.33475,0.008 0.49913,0.0211 0.16435,0.0141 0.3217,0.0341 0.47205,0.0601 0.15033,0.0262 0.28964,0.0572 0.41793,0.0933 0.12827,0.0361 0.23852,0.0741 0.33073,0.11426 l 0,0.86593 c -0.24054,-0.0803 -0.50312,-0.14732 -0.78775,-0.20146 -0.28464,-0.054 -0.57128,-0.0813 -0.85992,-0.0813 z" />
    <path
       inkscape:connector-curvature="0"
       id="path5513"
       style="font-size:24px;font-style:normal;font-variant:normal;font-weight:normal;font-stretch:normal;line-height:0%;letter-spacing:0px;word-spacing:0px;fill:#000000;fill-opacity:1;stroke:none;font-family:Corbel;-inkscape-font-specification:Corbel"
       d="m -182.40506,400.10696 -0.0241,0 c -0.0762,0.0962 -0.17238,0.19142 -0.28863,0.28564 -0.11625,0.0942 -0.25055,0.1784 -0.4029,0.25255 -0.15234,0.0741 -0.31871,0.13329 -0.49911,0.17739 -0.1804,0.0441 -0.37283,0.0661 -0.57729,0.0661 -0.27662,0 -0.53017,-0.0411 -0.76069,-0.12328 -0.23052,-0.0822 -0.42896,-0.20245 -0.59533,-0.3608 -0.16636,-0.15834 -0.29565,-0.35178 -0.38786,-0.58029 -0.0923,-0.22852 -0.1383,-0.48708 -0.1383,-0.77573 0,-0.28464 0.0511,-0.53919 0.15333,-0.76371 0.10226,-0.2245 0.24555,-0.41492 0.42997,-0.57127 0.1844,-0.15633 0.4059,-0.2766 0.66448,-0.36079 0.25856,-0.0841 0.54421,-0.12628 0.8569,-0.12629 0.29666,0.003 0.57127,0.0301 0.82384,0.0782 0.25255,0.0481 0.47705,0.10828 0.6735,0.18042 l 0.0241,0 0,-0.39688 c 0,-0.15635 -0.01,-0.29466 -0.03,-0.41493 -0.0201,-0.12027 -0.054,-0.22651 -0.10226,-0.31873 -0.10422,-0.19241 -0.2706,-0.35176 -0.49912,-0.47805 -0.22849,-0.12626 -0.53719,-0.18942 -0.92607,-0.18942 -0.28863,0 -0.56023,0.0271 -0.8148,0.0813 -0.25456,0.054 -0.50813,0.1293 -0.76069,0.22551 l 0,-0.78175 c 0.0962,-0.0481 0.20947,-0.0931 0.33975,-0.13529 0.13029,-0.0421 0.2676,-0.0782 0.41191,-0.10829 0.14434,-0.03 0.29667,-0.0531 0.45703,-0.0692 0.16034,-0.0161 0.32072,-0.0241 0.48107,-0.0241 0.57729,2e-5 1.04932,0.10226 1.41615,0.30669 0.36681,0.20446 0.63041,0.47507 0.79076,0.81181 0.0602,0.12827 0.10324,0.26959 0.12929,0.42394 0.0261,0.15435 0.0391,0.32372 0.0391,0.50813 l 0,3.81249 -0.78174,0 z m -0.0481,-1.87618 c -0.17239,-0.0481 -0.37685,-0.0942 -0.61336,-0.13831 -0.23655,-0.0441 -0.49711,-0.0681 -0.78174,-0.0721 -0.39688,10e-6 -0.70759,0.0841 -0.93208,0.25256 -0.22449,0.16838 -0.33675,0.42696 -0.33675,0.77573 0,0.1764 0.028,0.33075 0.0841,0.46304 0.0561,0.13229 0.1333,0.24154 0.23152,0.32772 0.0982,0.0861 0.21447,0.15034 0.34877,0.19244 0.1343,0.0421 0.27762,0.0632 0.42996,0.0632 0.20045,0 0.38686,-0.0289 0.55925,-0.0871 0.17238,-0.0581 0.32571,-0.12727 0.46002,-0.20746 0.1343,-0.0803 0.24855,-0.16035 0.34276,-0.24054 0.0942,-0.0803 0.16337,-0.14231 0.20747,-0.1864 z" />
    <path
       inkscape:connector-curvature="0"
       id="path5515"
       style="font-size:24px;font-style:normal;font-variant:normal;font-weight:normal;font-stretch:normal;line-height:0%;letter-spacing:0px;word-spacing:0px;fill:#000000;fill-opacity:1;stroke:none;font-family:Corbel;-inkscape-font-specification:Corbel"
       d="m -176.57808,395.78333 -0.0721,0 c -0.22048,0 -0.43697,0.0201 -0.64943,0.0601 -0.21248,0.04 -0.41193,0.10126 -0.59833,0.18341 -0.18643,0.0821 -0.3548,0.18341 -0.50512,0.30368 -0.15035,0.12027 -0.27563,0.26256 -0.37586,0.42694 l 0,3.98088 -0.93206,0 0,-5.71273 0.72161,0 0.1804,0.90802 0.0181,0 c 0.0923,-0.14832 0.20544,-0.28663 0.33974,-0.41492 0.1343,-0.1283 0.28564,-0.24053 0.45402,-0.33676 0.16836,-0.0962 0.35279,-0.17137 0.55324,-0.22549 0.20042,-0.054 0.4109,-0.0813 0.6314,-0.0813 0.0401,0 0.0813,9.9e-4 0.12326,0.003 0.0421,0.002 0.0793,0.004 0.11126,0.01 z" />
    <path
       inkscape:connector-curvature="0"
       id="path5517"
       style="font-size:24px;font-style:normal;font-variant:normal;font-weight:normal;font-stretch:normal;line-height:0%;letter-spacing:0px;word-spacing:0px;fill:#000000;fill-opacity:1;stroke:none;font-family:Corbel;-inkscape-font-specification:Corbel"
       d="m -171.4246,397.85794 c -1e-5,-0.453 -0.0531,-0.82082 -0.15936,-1.10345 -0.1062,-0.28263 -0.24255,-0.50312 -0.4089,-0.66146 -0.16638,-0.15836 -0.34378,-0.2676 -0.53221,-0.32774 -0.18841,-0.0602 -0.37681,-0.0902 -0.56523,-0.0902 -0.28864,0 -0.56027,0.0602 -0.81484,0.1804 -0.25456,0.12028 -0.48006,0.27662 -0.67649,0.46906 l 0,2.98865 c 0.0561,0.0762 0.12928,0.15936 0.21949,0.24955 0.0902,0.0902 0.19744,0.17439 0.32172,0.25256 0.12427,0.0782 0.26357,0.14433 0.41792,0.19845 0.15434,0.054 0.32372,0.0812 0.50812,0.0812 0.27662,0 0.52016,-0.054 0.73065,-0.16236 0.21045,-0.10829 0.38685,-0.26158 0.52917,-0.46003 0.14232,-0.19843 0.24955,-0.43497 0.32171,-0.70957 0.0722,-0.27461 0.10817,-0.57627 0.10829,-0.90502 z m 0.97418,-0.0721 c -1e-5,0.53319 -0.0721,0.99423 -0.2165,1.38309 -0.14434,0.38886 -0.33475,0.71058 -0.57126,0.96514 -0.23654,0.25456 -0.50714,0.44399 -0.81181,0.56827 -0.30469,0.12428 -0.61939,0.18642 -0.94411,0.18642 -0.24454,0 -0.46001,-0.0311 -0.64644,-0.0932 -0.18642,-0.0621 -0.34477,-0.1363 -0.47504,-0.2225 -0.1303,-0.0861 -0.23454,-0.17339 -0.31272,-0.26156 -0.0782,-0.0882 -0.13328,-0.15836 -0.16536,-0.21049 l -0.0181,0 -0.19845,0.63743 -0.70356,0 0,-8.70739 0.93207,0 0,3.52986 0.018,0 c 0.20448,-0.21648 0.443,-0.38485 0.71561,-0.50513 0.27261,-0.12025 0.58329,-0.18039 0.93207,-0.18039 0.16035,0 0.33374,0.0181 0.52016,0.054 0.18642,0.0361 0.37082,0.0982 0.55324,0.18643 0.1824,0.0882 0.35778,0.20445 0.52616,0.34878 0.16838,0.14431 0.3167,0.32369 0.44499,0.53819 0.12828,0.21448 0.23051,0.46904 0.3067,0.7637 0.0762,0.29465 0.11424,0.63441 0.11425,1.01926 z" />
    <path
       inkscape:connector-curvature="0"
       id="path5519"
       style="font-size:24px;font-style:normal;font-variant:normal;font-weight:normal;font-stretch:normal;line-height:0%;letter-spacing:0px;word-spacing:0px;fill:#000000;fill-opacity:1;stroke:none;font-family:Corbel;-inkscape-font-specification:Corbel"
       d="m -164.864,397.88802 c 0,-0.35279 -0.0431,-0.66649 -0.12928,-0.94111 -0.0861,-0.2746 -0.20648,-0.50711 -0.36081,-0.69754 -0.15434,-0.19042 -0.33775,-0.33473 -0.55022,-0.43297 -0.21248,-0.0982 -0.44499,-0.14733 -0.69757,-0.14733 -0.25255,0 -0.48506,0.0492 -0.69753,0.14733 -0.21248,0.0982 -0.39589,0.24255 -0.55025,0.43297 -0.15434,0.19043 -0.27459,0.42294 -0.36079,0.69754 -0.0861,0.27462 -0.12929,0.58832 -0.12929,0.94111 0,0.34877 0.0431,0.66048 0.12929,0.93509 0.0861,0.2746 0.20745,0.50612 0.36381,0.69453 0.15635,0.18842 0.34077,0.33176 0.55323,0.42996 0.21247,0.0982 0.44499,0.14733 0.69755,0.14733 0.25256,0 0.48407,-0.0491 0.69455,-0.14733 0.21046,-0.0982 0.39288,-0.24154 0.54722,-0.42996 0.15433,-0.18841 0.27461,-0.41993 0.36081,-0.69453 0.0861,-0.27461 0.12928,-0.58632 0.12928,-0.93509 z m 0.97417,0 c 0,0.449 -0.0641,0.85792 -0.19242,1.22673 -0.12829,0.36882 -0.3097,0.68451 -0.54422,0.9471 -0.23453,0.2626 -0.51815,0.46605 -0.85089,0.61036 -0.33276,0.14434 -0.70557,0.2165 -1.1185,0.2165 -0.42493,0 -0.80479,-0.0721 -1.13952,-0.2165 -0.33476,-0.14431 -0.61938,-0.34776 -0.85391,-0.61036 -0.23452,-0.26259 -0.41392,-0.57828 -0.53821,-0.9471 -0.12427,-0.36881 -0.1864,-0.77773 -0.1864,-1.22673 0,-0.453 0.0641,-0.86393 0.19243,-1.23275 0.12828,-0.36881 0.30968,-0.68552 0.5442,-0.95011 0.23451,-0.26459 0.51918,-0.46905 0.85391,-0.61336 0.33475,-0.14432 0.70856,-0.21648 1.12148,-0.21648 0.42094,0 0.79979,0.0721 1.13654,0.21648 0.33675,0.14431 0.62138,0.34877 0.8539,0.61336 0.23253,0.26459 0.41091,0.5813 0.5352,0.95011 0.12426,0.36882 0.18641,0.77975 0.18641,1.23275 z" />
    <path
       inkscape:connector-curvature="0"
       id="path5521"
       style="font-size:24px;font-style:normal;font-variant:normal;font-weight:normal;font-stretch:normal;line-height:0%;letter-spacing:0px;word-spacing:0px;fill:#000000;fill-opacity:1;stroke:none;font-family:Corbel;-inkscape-font-specification:Corbel"
       d="m -161.51454,395.81941 0.0181,0 c 0.10423,-0.13229 0.21948,-0.25556 0.34577,-0.36982 0.12629,-0.11425 0.26759,-0.21447 0.42394,-0.30067 0.15636,-0.0861 0.32773,-0.15335 0.51415,-0.20144 0.18642,-0.0481 0.38986,-0.0721 0.61035,-0.0721 0.26058,0 0.50512,0.036 0.73365,0.10828 0.2285,0.0721 0.42694,0.18841 0.59531,0.34877 0.16838,0.16035 0.30167,0.36982 0.3999,0.62839 0.0982,0.25859 0.14732,0.5763 0.14732,0.95312 l 0,3.82452 -0.93206,0 0,-3.67418 c -1e-5,-0.4931 -0.0952,-0.84788 -0.28566,-1.06437 -0.19042,-0.21648 -0.46804,-0.32472 -0.83284,-0.32472 -0.32072,0 -0.63142,0.0892 -0.93208,0.26759 -0.30066,0.17841 -0.55925,0.42394 -0.77573,0.73663 l 0,4.05905 -0.93207,0 0,-5.7127 0.72161,0 z" />
    <path
       inkscape:connector-curvature="0"
       id="path5523"
       style="font-size:24px;font-style:normal;font-variant:normal;font-weight:normal;font-stretch:normal;line-height:0%;letter-spacing:0px;word-spacing:0px;fill:#000000;fill-opacity:1;stroke:none;font-family:Corbel;-inkscape-font-specification:Corbel"
       d="m -149.4156,393.41406 c -0.445,10e-6 -0.86092,0.0712 -1.24777,0.21347 -0.38687,0.14232 -0.72262,0.3548 -1.00725,0.63742 -0.28463,0.28263 -0.50914,0.63341 -0.67351,1.05234 -0.16437,0.41895 -0.24654,0.90702 -0.24654,1.46427 0,0.55322 0.0762,1.0333 0.2285,1.4402 0.15234,0.4069 0.36883,0.74366 0.64945,1.01024 0.28063,0.2666 0.61839,0.46405 1.01326,0.59232 0.39488,0.12829 0.83486,0.19244 1.31994,0.19244 0.13229,0 0.27259,-0.008 0.42093,-0.0211 0.14834,-0.014 0.29765,-0.034 0.44801,-0.0602 0.15032,-0.0262 0.29666,-0.0561 0.43896,-0.0902 0.14232,-0.0341 0.26961,-0.0711 0.38186,-0.11126 l 0,0.86594 c -0.23654,0.0923 -0.51114,0.16336 -0.82383,0.21346 -0.31271,0.05 -0.63341,0.0752 -0.96215,0.0752 -0.66949,0 -1.2628,-0.0933 -1.77996,-0.27962 -0.51716,-0.18642 -0.95111,-0.45401 -1.3019,-0.80278 -0.35078,-0.34878 -0.61638,-0.77473 -0.79677,-1.27786 -0.18039,-0.50311 -0.2706,-1.07338 -0.2706,-1.7108 0,-0.6254 0.0951,-1.20067 0.28562,-1.72584 0.19043,-0.52517 0.46504,-0.97617 0.82384,-1.35302 0.3588,-0.37683 0.79379,-0.67049 1.3049,-0.88095 0.51114,-0.21047 1.08542,-0.31569 1.72284,-0.3157 0.16837,10e-6 0.33475,0.008 0.49912,0.0211 0.16436,0.0141 0.32171,0.0341 0.47205,0.0601 0.15033,0.0262 0.28963,0.0572 0.41793,0.0933 0.12827,0.0361 0.23852,0.0741 0.33074,0.11426 l 0,0.86593 c -0.24055,-0.0803 -0.50313,-0.14732 -0.78776,-0.20146 -0.28464,-0.054 -0.57127,-0.0813 -0.85991,-0.0813 z" />
    <path
       inkscape:connector-curvature="0"
       id="path5525"
       style="font-size:24px;font-style:normal;font-variant:normal;font-weight:normal;font-stretch:normal;line-height:0%;letter-spacing:0px;word-spacing:0px;fill:#000000;fill-opacity:1;stroke:none;font-family:Corbel;-inkscape-font-specification:Corbel"
       d="m -142.83696,400.10696 -0.0241,0 c -0.0762,0.0962 -0.17239,0.19142 -0.28865,0.28564 -0.11626,0.0942 -0.25056,0.1784 -0.4029,0.25255 -0.15234,0.0741 -0.3187,0.13329 -0.49912,0.17739 -0.1804,0.0441 -0.37281,0.0661 -0.57727,0.0661 -0.27661,0 -0.53018,-0.0411 -0.76069,-0.12328 -0.2305,-0.0822 -0.42895,-0.20245 -0.59532,-0.3608 -0.16638,-0.15834 -0.29567,-0.35178 -0.38788,-0.58029 -0.0923,-0.22852 -0.1383,-0.48708 -0.1383,-0.77573 0,-0.28464 0.0511,-0.53919 0.15333,-0.76371 0.10226,-0.2245 0.24555,-0.41492 0.42997,-0.57127 0.18441,-0.15633 0.4059,-0.2766 0.66448,-0.36079 0.25857,-0.0841 0.5442,-0.12628 0.85689,-0.12629 0.29668,0.003 0.57129,0.0301 0.82385,0.0782 0.25255,0.0481 0.47705,0.10828 0.6735,0.18042 l 0.0241,0 0,-0.39688 c 0,-0.15635 -0.01,-0.29466 -0.03,-0.41493 -0.0201,-0.12027 -0.054,-0.22651 -0.10226,-0.31873 -0.10433,-0.19241 -0.27059,-0.35176 -0.49911,-0.47805 -0.22849,-0.12626 -0.53719,-0.18942 -0.92605,-0.18942 -0.28865,0 -0.56025,0.0271 -0.8148,0.0813 -0.25458,0.054 -0.50815,0.1293 -0.7607,0.22551 l 0,-0.78175 c 0.0962,-0.0481 0.20947,-0.0931 0.33975,-0.13529 0.13029,-0.0421 0.26758,-0.0782 0.41191,-0.10829 0.14433,-0.03 0.29667,-0.0531 0.45703,-0.0692 0.16035,-0.0161 0.32071,-0.0241 0.48105,-0.0241 0.57729,2e-5 1.04935,0.10226 1.41617,0.30669 0.36681,0.20446 0.63039,0.47507 0.79077,0.81181 0.0602,0.12827 0.10324,0.26959 0.12927,0.42394 0.0261,0.15435 0.0391,0.32372 0.0391,0.50813 l 0,3.81249 -0.78174,0 z m -0.0481,-1.87618 c -0.17238,-0.0481 -0.37685,-0.0942 -0.61337,-0.13831 -0.23652,-0.0441 -0.4971,-0.0681 -0.78173,-0.0721 -0.39689,10e-6 -0.70759,0.0841 -0.93208,0.25256 -0.2245,0.16838 -0.33675,0.42696 -0.33675,0.77573 0,0.1764 0.0281,0.33075 0.0841,0.46304 0.0561,0.13229 0.13331,0.24154 0.23153,0.32772 0.0982,0.0861 0.21446,0.15034 0.34877,0.19244 0.13431,0.0421 0.27762,0.0632 0.42996,0.0632 0.20045,0 0.38686,-0.0289 0.55924,-0.0871 0.1724,-0.0581 0.32574,-0.12727 0.46004,-0.20746 0.1343,-0.0803 0.24853,-0.16035 0.34276,-0.24054 0.0942,-0.0803 0.16336,-0.14231 0.20746,-0.1864 z" />
    <path
       inkscape:connector-curvature="0"
       id="path5527"
       style="font-size:24px;font-style:normal;font-variant:normal;font-weight:normal;font-stretch:normal;line-height:0%;letter-spacing:0px;word-spacing:0px;fill:#000000;fill-opacity:1;stroke:none;font-family:Corbel;-inkscape-font-specification:Corbel"
       d="m -136.05385,397.82788 c 0,-0.33274 -0.0351,-0.6314 -0.10532,-0.89598 -0.0701,-0.26459 -0.17541,-0.4901 -0.31571,-0.67652 -0.14033,-0.18641 -0.3127,-0.32973 -0.51714,-0.42995 -0.20447,-0.10016 -0.441,-0.15034 -0.70959,-0.15034 -0.19243,0 -0.36783,0.0262 -0.52617,0.0782 -0.15835,0.0521 -0.30168,0.11827 -0.42995,0.19844 -0.1283,0.0802 -0.23854,0.16638 -0.33074,0.25857 -0.0923,0.0923 -0.16637,0.17439 -0.2225,0.24655 l 0,2.98866 c 0.19644,0.20045 0.41994,0.3588 0.67048,0.47505 0.25058,0.11627 0.52016,0.1744 0.80882,0.1744 0.17638,0 0.36279,-0.033 0.55924,-0.0992 0.19644,-0.0661 0.37784,-0.18442 0.54422,-0.35478 0.16637,-0.17039 0.30366,-0.4019 0.41191,-0.69456 0.10818,-0.29264 0.16236,-0.66547 0.16236,-1.11848 z m 0.97416,-0.012 c -1e-5,0.39688 -0.0391,0.74867 -0.11726,1.05534 -0.0782,0.30669 -0.1814,0.57428 -0.30967,0.80278 -0.12832,0.22851 -0.27864,0.41995 -0.45103,0.57429 -0.17238,0.15435 -0.35077,0.27861 -0.53518,0.37283 -0.18441,0.0943 -0.37184,0.16236 -0.56226,0.20446 -0.19041,0.0421 -0.36983,0.0632 -0.53819,0.0632 -0.34878,0 -0.65145,-0.0572 -0.90801,-0.17139 -0.25658,-0.11423 -0.48709,-0.28362 -0.69156,-0.50812 l -0.0181,0 0,3.32541 -0.93208,0 0,-8.50894 0.70358,0 0.19844,0.64944 0.018,0 c 0.052,-0.0803 0.11926,-0.15835 0.20144,-0.23452 0.0822,-0.0762 0.19243,-0.15735 0.33074,-0.24356 0.1383,-0.0861 0.30468,-0.16133 0.49912,-0.2255 0.19442,-0.0641 0.40589,-0.0962 0.63441,-0.0962 0.3207,10e-6 0.63039,0.0541 0.92906,0.16237 0.29867,0.10827 0.56225,0.28062 0.79077,0.51714 0.2285,0.23654 0.4119,0.54021 0.55022,0.91103 0.1383,0.37083 0.20745,0.82084 0.20745,1.35002 z" />
    <path
       inkscape:connector-curvature="0"
       id="path5529"
       style="font-size:24px;font-style:normal;font-variant:normal;font-weight:normal;font-stretch:normal;line-height:0%;letter-spacing:0px;word-spacing:0px;fill:#000000;fill-opacity:1;stroke:none;font-family:Corbel;-inkscape-font-specification:Corbel"
       d="m -130.58768,400.7504 c -0.0803,0.0321 -0.20247,0.0621 -0.36683,0.0902 -0.16435,0.028 -0.36079,0.0441 -0.5893,0.0481 -0.30067,0 -0.56125,-0.0372 -0.78175,-0.11125 -0.22048,-0.0741 -0.4039,-0.18041 -0.55022,-0.31871 -0.14632,-0.13831 -0.25556,-0.30569 -0.32773,-0.50212 -0.0721,-0.19644 -0.10817,-0.41493 -0.10817,-0.65545 l 0,-3.47574 -1.10047,0 0,-0.79978 1.10047,0 0,-1.56349 0.93206,0 0,1.56349 1.70781,0 0,0.79978 -1.70781,0 0,3.33142 c 0,0.13229 0.019,0.25456 0.0572,0.36682 0.0381,0.11224 0.0982,0.20945 0.18041,0.29163 0.0822,0.0822 0.18741,0.14635 0.31569,0.19242 0.12829,0.0462 0.28262,0.0692 0.46303,0.0692 0.12428,0 0.25557,-0.01 0.39387,-0.03 0.13832,-0.0201 0.26559,-0.0462 0.38186,-0.0782 z" />
    <path
       inkscape:connector-curvature="0"
       id="path5531"
       style="font-size:24px;font-style:normal;font-variant:normal;font-weight:normal;font-stretch:normal;line-height:0%;letter-spacing:0px;word-spacing:0px;fill:#000000;fill-opacity:1;stroke:none;font-family:Corbel;-inkscape-font-specification:Corbel"
       d="m -127.05181,400.88871 c -0.29666,0 -0.56327,-0.0321 -0.79979,-0.0962 -0.23651,-0.0641 -0.44399,-0.15436 -0.62238,-0.27063 -0.1784,-0.11625 -0.32973,-0.25557 -0.45401,-0.41792 -0.12427,-0.16236 -0.22251,-0.33976 -0.29466,-0.53217 -0.0561,-0.14434 -0.0963,-0.3027 -0.12026,-0.47509 -0.0241,-0.17237 -0.0362,-0.36078 -0.0362,-0.56524 l 0,-3.5058 0.93207,0 0,3.49977 c 0,0.31671 0.0421,0.58132 0.12629,0.79378 0.0962,0.24054 0.25156,0.42996 0.46604,0.56827 0.21448,0.13831 0.48808,0.20746 0.82083,0.20746 0.35277,0 0.63641,-0.0762 0.85088,-0.22851 0.21447,-0.15234 0.36782,-0.35681 0.46003,-0.61338 0.0681,-0.19642 0.10225,-0.43897 0.10225,-0.72762 l 0,-3.49977 0.93208,0 0,3.51181 c -2e-5,0.19243 -0.011,0.37183 -0.0331,0.5382 -0.022,0.16637 -0.0571,0.31971 -0.10521,0.46002 -0.0722,0.19643 -0.17139,0.37784 -0.29767,0.54423 -0.12628,0.16636 -0.28163,0.30967 -0.46603,0.42994 -0.18442,0.12026 -0.39789,0.21347 -0.64042,0.27962 -0.24255,0.0661 -0.51616,0.0992 -0.82083,0.0992 z" />
    <path
       inkscape:connector-curvature="0"
       id="path5533"
       style="font-size:24px;font-style:normal;font-variant:normal;font-weight:normal;font-stretch:normal;line-height:0%;letter-spacing:0px;word-spacing:0px;fill:#000000;fill-opacity:1;stroke:none;font-family:Corbel;-inkscape-font-specification:Corbel"
       d="m -119.81169,395.78333 -0.0721,0 c -0.22052,0 -0.437,0.0201 -0.64947,0.0601 -0.21248,0.04 -0.41193,0.10126 -0.59832,0.18341 -0.18642,0.0821 -0.3548,0.18341 -0.50514,0.30368 -0.15032,0.12027 -0.27562,0.26256 -0.37583,0.42694 l 0,3.98088 -0.93207,0 0,-5.71273 0.72161,0 0.1804,0.90802 0.018,0 c 0.0923,-0.14832 0.20547,-0.28663 0.33977,-0.41492 0.13429,-0.1283 0.28564,-0.24053 0.45402,-0.33676 0.16836,-0.0962 0.35276,-0.17137 0.55321,-0.22549 0.20045,-0.054 0.41092,-0.0813 0.63141,-0.0813 0.04,0 0.0813,9.9e-4 0.12328,0.003 0.0421,0.002 0.0793,0.004 0.11124,0.01 z" />
    <path
       inkscape:connector-curvature="0"
       id="path5535"
       style="font-size:24px;font-style:normal;font-variant:normal;font-weight:normal;font-stretch:normal;line-height:0%;letter-spacing:0px;word-spacing:0px;fill:#000000;fill-opacity:1;stroke:none;font-family:Corbel;-inkscape-font-specification:Corbel"
       d="m -116.57048,395.67509 c -0.21248,0 -0.40991,0.042 -0.59231,0.12627 -0.18241,0.0841 -0.34177,0.19845 -0.47808,0.34277 -0.13629,0.14432 -0.24653,0.31371 -0.33073,0.50813 -0.0841,0.19444 -0.1363,0.40191 -0.15634,0.62239 l 2.88642,0 c -1e-5,-0.22449 -0.029,-0.43396 -0.0872,-0.62841 -0.0582,-0.19441 -0.14333,-0.3638 -0.25558,-0.50811 -0.11225,-0.14432 -0.25057,-0.25758 -0.41492,-0.33977 -0.16437,-0.0822 -0.35479,-0.12327 -0.57127,-0.12327 z m 0.51115,4.4018 c 0.30868,0 0.59029,-0.0252 0.84488,-0.0752 0.25456,-0.0501 0.50813,-0.12124 0.76068,-0.21347 l 0,0.77572 c -0.20444,0.10029 -0.45703,0.1794 -0.75768,0.23754 -0.30068,0.0581 -0.6234,0.0871 -0.96816,0.0871 -0.4089,0 -0.79276,-0.0521 -1.15155,-0.15635 -0.35881,-0.10412 -0.67251,-0.27262 -0.94111,-0.50513 -0.26859,-0.23253 -0.48007,-0.53619 -0.63441,-0.91103 -0.15434,-0.37484 -0.23151,-0.82685 -0.23151,-1.35602 0,-0.52115 0.0721,-0.97316 0.21648,-1.35602 0.14432,-0.38284 0.33675,-0.70257 0.57729,-0.95914 0.24051,-0.25657 0.51715,-0.44899 0.82984,-0.57728 0.31268,-0.12828 0.63942,-0.19242 0.98018,-0.19242 0.32071,0 0.62039,0.0531 0.899,0.15934 0.27861,0.10621 0.52017,0.27361 0.72461,0.50214 0.20447,0.2285 0.36582,0.52316 0.4841,0.88395 0.11824,0.36081 0.17737,0.79377 0.17738,1.2989 -1e-5,0.0481 -1e-5,0.0892 0,0.12327 -1e-5,0.0341 -0.002,0.11125 -0.007,0.23151 l -3.92073,0 c 0,0.36483 0.0551,0.6745 0.16536,0.92906 0.11025,0.25459 0.2606,0.46104 0.45102,0.61939 0.19042,0.15836 0.41392,0.27361 0.6705,0.34578 0.25656,0.0721 0.53317,0.10817 0.82984,0.10817 z" />
    <path
       inkscape:connector-curvature="0"
       id="path5537"
       style="font-size:24px;font-style:normal;font-variant:normal;font-weight:normal;font-stretch:normal;line-height:0%;letter-spacing:0px;word-spacing:0px;fill:#000000;fill-opacity:1;stroke:none;font-family:Corbel;-inkscape-font-specification:Corbel"
       d="m -109.33037,394.82118 c 0,0.23655 0.0481,0.43198 0.14433,0.58631 0.0963,0.15436 0.2255,0.28164 0.38787,0.38185 0.16236,0.10029 0.35079,0.18243 0.56525,0.24656 0.21448,0.0641 0.43797,0.12427 0.6705,0.18039 0.31269,0.0762 0.62038,0.16037 0.92305,0.25257 0.30267,0.0923 0.57226,0.21949 0.80881,0.38185 0.23652,0.16236 0.42794,0.37382 0.57428,0.63441 0.14631,0.26057 0.21948,0.59533 0.21949,1.00424 -1e-5,0.41692 -0.0772,0.77673 -0.23153,1.0794 -0.15434,0.30268 -0.36882,0.55122 -0.64343,0.74567 -0.27461,0.19442 -0.60234,0.33875 -0.98319,0.43295 -0.38084,0.0942 -0.79778,0.14133 -1.25077,0.14133 -0.20848,0 -0.42195,-0.013 -0.64044,-0.0391 -0.21848,-0.0262 -0.42695,-0.0612 -0.62539,-0.10521 -0.19844,-0.0441 -0.37784,-0.0942 -0.5382,-0.15033 -0.16035,-0.0561 -0.28664,-0.11225 -0.37883,-0.16837 l 0,-0.896 c 0.14432,0.0722 0.30666,0.13831 0.48707,0.19845 0.18041,0.0601 0.36681,0.11124 0.55926,0.15334 0.19242,0.042 0.38684,0.0752 0.58329,0.0992 0.19644,0.0241 0.38084,0.0361 0.55324,0.0361 0.28061,0 0.54821,-0.0241 0.80277,-0.0721 0.25458,-0.0481 0.47808,-0.12827 0.6705,-0.24053 0.19242,-0.11225 0.34477,-0.2656 0.45702,-0.46002 0.11225,-0.19444 0.16837,-0.43797 0.16837,-0.73063 0,-0.24054 -0.049,-0.43898 -0.14733,-0.59533 -0.0982,-0.15634 -0.22951,-0.28564 -0.39387,-0.38785 -0.16436,-0.10226 -0.35379,-0.18543 -0.56826,-0.24956 -0.21448,-0.0641 -0.44,-0.12428 -0.67651,-0.1804 -0.3127,-0.0721 -0.61839,-0.15336 -0.91705,-0.24356 -0.29866,-0.0902 -0.56525,-0.21547 -0.79978,-0.37583 -0.23452,-0.16035 -0.42293,-0.36682 -0.56525,-0.61937 -0.14233,-0.25257 -0.21347,-0.57529 -0.21347,-0.96817 0,-0.40889 0.0721,-0.76068 0.21648,-1.05534 0.14431,-0.29465 0.34075,-0.53819 0.58931,-0.73063 0.24854,-0.19241 0.53919,-0.33474 0.87193,-0.42696 0.33274,-0.0923 0.68753,-0.13829 1.06437,-0.1383 0.42895,10e-6 0.82884,0.0411 1.19969,0.12328 0.37082,0.0822 0.71055,0.18943 1.01925,0.32171 l 0,0.90802 c -0.33274,-0.1403 -0.6765,-0.25457 -1.03129,-0.34277 -0.3548,-0.0882 -0.73464,-0.13429 -1.13954,-0.13829 -0.30468,1e-5 -0.56926,0.0331 -0.79376,0.0992 -0.22451,0.0661 -0.41092,0.16037 -0.55925,0.28262 -0.14834,0.12228 -0.25856,0.27062 -0.33074,0.445 -0.0721,0.1744 -0.10828,0.36784 -0.10828,0.58028 z" />
    <path
       inkscape:connector-curvature="0"
       id="path5539"
       style="font-size:24px;font-style:normal;font-variant:normal;font-weight:normal;font-stretch:normal;line-height:0%;letter-spacing:0px;word-spacing:0px;fill:#000000;fill-opacity:1;stroke:none;font-family:Corbel;-inkscape-font-specification:Corbel"
       d="m -103.329,400.73836 0,-5.71271 0.93208,0 0,5.71271 z m -0.0241,-7.04167 0,-1.04032 0.98019,0 0,1.04032 z" />
    <path
       inkscape:connector-curvature="0"
       id="path5541"
       style="font-size:24px;font-style:normal;font-variant:normal;font-weight:normal;font-stretch:normal;line-height:0%;letter-spacing:0px;word-spacing:0px;fill:#000000;fill-opacity:1;stroke:none;font-family:Corbel;-inkscape-font-specification:Corbel"
       d="m -95.860372,400.73836 -0.932067,0 0,-3.67417 c -1e-5,-0.24856 -0.02713,-0.46004 -0.08125,-0.63442 -0.05413,-0.17439 -0.132301,-0.31771 -0.234531,-0.42996 -0.102246,-0.11225 -0.224499,-0.19442 -0.366813,-0.24654 -0.142319,-0.0521 -0.301675,-0.0782 -0.478063,-0.0782 -0.332744,0 -0.635418,0.0892 -0.908032,0.26759 -0.272599,0.17841 -0.517144,0.42394 -0.73362,0.73665 l 0,4.05904 -0.932092,0 0,-5.71272 0.72162,0 0.180396,0.79376 0.01799,0 c 0.104331,-0.13229 0.217465,-0.25556 0.339748,-0.36982 0.122272,-0.11426 0.258567,-0.21448 0.408908,-0.30068 0.150321,-0.0861 0.315692,-0.15333 0.496103,-0.20144 0.180397,-0.0481 0.376827,-0.0722 0.589315,-0.0722 0.424931,0 0.777722,0.10224 1.058343,0.30668 0.28062,0.20445 0.497102,0.48308 0.649449,0.83586 l 0.02412,0 c 0.252547,-0.35679 0.541194,-0.63641 0.865916,-0.83887 0.324727,-0.20244 0.70357,-0.30367 1.136538,-0.30367 0.200443,0 0.412917,0.0281 0.637425,0.0841 0.224488,0.0561 0.430942,0.15936 0.619374,0.30969 0.188404,0.15034 0.344755,0.35779 0.469044,0.62238 0.124259,0.2646 0.186396,0.60535 0.186416,1.02227 l 0,3.82454 -0.926066,0 0,-3.6742 c -1e-5,-0.24854 -0.02714,-0.46001 -0.08125,-0.6344 -0.05414,-0.17439 -0.132306,-0.31772 -0.234522,-0.42997 -0.102255,-0.11225 -0.224508,-0.19442 -0.366828,-0.24654 -0.142324,-0.052 -0.301665,-0.0782 -0.478058,-0.0782 -0.332749,0 -0.636431,0.0892 -0.911032,0.26759 -0.27463,0.17841 -0.520163,0.42394 -0.73664,0.73664 z" />
    <path
       inkscape:connector-curvature="0"
       id="path5543"
       style="font-size:24px;font-style:normal;font-variant:normal;font-weight:normal;font-stretch:normal;line-height:0%;letter-spacing:0px;word-spacing:0px;fill:#000000;fill-opacity:1;stroke:none;font-family:Corbel;-inkscape-font-specification:Corbel"
       d="m -88.061,400.88871 c -0.296659,0 -0.563253,-0.0321 -0.799781,-0.0962 -0.236528,-0.0641 -0.443995,-0.15436 -0.622384,-0.27063 -0.1784,-0.11625 -0.329739,-0.25557 -0.454014,-0.41792 -0.124269,-0.16236 -0.222496,-0.33976 -0.294667,-0.53217 -0.05612,-0.14434 -0.09624,-0.3027 -0.120256,-0.47509 -0.02412,-0.17237 -0.03608,-0.36078 -0.03608,-0.56524 l 0,-3.5058 0.932067,0 0,3.49977 c 0,0.31671 0.04211,0.58132 0.126276,0.79378 0.09625,0.24054 0.251568,0.42996 0.466043,0.56827 0.21449,0.13831 0.488092,0.20746 0.820831,0.20746 0.352781,0 0.636421,-0.0762 0.850896,-0.22851 0.214465,-0.15234 0.367811,-0.35681 0.460014,-0.61338 0.06814,-0.19642 0.10226,-0.43897 0.10226,-0.72762 l 0,-3.49977 0.932077,0 0,3.51181 c 0,0.19243 -0.01102,0.37183 -0.03307,0.5382 -0.02204,0.16637 -0.05711,0.31971 -0.105216,0.46002 -0.07221,0.19643 -0.171377,0.37784 -0.297653,0.54423 -0.126295,0.16636 -0.281633,0.30967 -0.466043,0.42994 -0.18441,0.12026 -0.397886,0.21347 -0.640425,0.27962 -0.242543,0.0661 -0.51616,0.0992 -0.820831,0.0992 z" />
    <path
       inkscape:connector-curvature="0"
       id="path5545"
       style="font-size:24px;font-style:normal;font-variant:normal;font-weight:normal;font-stretch:normal;line-height:0%;letter-spacing:0px;word-spacing:0px;fill:#000000;fill-opacity:1;stroke:none;font-family:Corbel;-inkscape-font-specification:Corbel"
       d="m -83.893725,400.73836 0,-8.70739 0.932067,0 0,8.70739 z" />
    <path
       inkscape:connector-curvature="0"
       id="path5547"
       style="font-size:24px;font-style:normal;font-variant:normal;font-weight:normal;font-stretch:normal;line-height:0%;letter-spacing:0px;word-spacing:0px;fill:#000000;fill-opacity:1;stroke:none;font-family:Corbel;-inkscape-font-specification:Corbel"
       d="m -77.74804,400.10696 -0.02412,0 c -0.07618,0.0962 -0.17238,0.19142 -0.288642,0.28564 -0.116253,0.0942 -0.250555,0.1784 -0.402893,0.25255 -0.152338,0.0741 -0.318703,0.13329 -0.499109,0.17739 -0.180406,0.0441 -0.372838,0.0661 -0.577289,0.0661 -0.276617,0 -0.530182,-0.0411 -0.760691,-0.12328 -0.230518,-0.0822 -0.428954,-0.20245 -0.595324,-0.3608 -0.166375,-0.15834 -0.29566,-0.35178 -0.387863,-0.58029 -0.09218,-0.22852 -0.138316,-0.48708 -0.138316,-0.77573 0,-0.28464 0.05106,-0.53919 0.153351,-0.76371 0.102251,-0.2245 0.245539,-0.41492 0.429958,-0.57127 0.1844,-0.15633 0.405903,-0.2766 0.66448,-0.36079 0.258567,-0.0841 0.544204,-0.12628 0.856906,-0.12629 0.296649,0.003 0.57127,0.0301 0.823832,0.0782 0.252556,0.0481 0.47706,0.10828 0.673495,0.18042 l 0.02412,0 0,-0.39688 c -1e-5,-0.15635 -0.0099,-0.29466 -0.03,-0.41493 -0.02007,-0.12027 -0.05414,-0.22651 -0.10226,-0.31873 -0.104223,-0.19241 -0.270607,-0.35176 -0.499109,-0.47805 -0.228512,-0.12626 -0.537191,-0.18942 -0.926067,-0.18942 -0.288632,0 -0.560232,0.0271 -0.814811,0.0813 -0.254563,0.054 -0.508129,0.1293 -0.760695,0.22551 l 0,-0.78175 c 0.09624,-0.0481 0.209468,-0.0931 0.339757,-0.13529 0.130289,-0.0421 0.267597,-0.0782 0.411918,-0.10829 0.144316,-0.03 0.296654,-0.0531 0.457018,-0.0692 0.16036,-0.0161 0.320705,-0.0241 0.481069,-0.0241 0.577289,2e-5 1.049343,0.10226 1.41616,0.30669 0.366813,0.20446 0.630387,0.47507 0.790761,0.81181 0.06019,0.12827 0.103244,0.26959 0.129286,0.42394 0.02615,0.15435 0.03915,0.32372 0.03915,0.50813 l 0,3.81249 -0.781736,0 z m -0.04809,-1.87618 c -0.172385,-0.0481 -0.376836,-0.0942 -0.613365,-0.13831 -0.236528,-0.0441 -0.497102,-0.0681 -0.781736,-0.0721 -0.396892,10e-6 -0.707578,0.0841 -0.932086,0.25256 -0.224489,0.16838 -0.336738,0.42696 -0.336738,0.77573 0,0.1764 0.02812,0.33075 0.08413,0.46304 0.05612,0.13229 0.133299,0.24154 0.231521,0.32772 0.09824,0.0861 0.21447,0.15034 0.348768,0.19244 0.134302,0.0421 0.27762,0.0632 0.429958,0.0632 0.200443,0 0.386859,-0.0289 0.559254,-0.0871 0.17237,-0.0581 0.325726,-0.12727 0.460013,-0.20746 0.134293,-0.0803 0.248559,-0.16035 0.342768,-0.24054 0.09416,-0.0803 0.163364,-0.14231 0.207466,-0.1864 z" />
    <path
       inkscape:connector-curvature="0"
       id="path5549"
       style="font-size:24px;font-style:normal;font-variant:normal;font-weight:normal;font-stretch:normal;line-height:0%;letter-spacing:0px;word-spacing:0px;fill:#000000;fill-opacity:1;stroke:none;font-family:Corbel;-inkscape-font-specification:Corbel"
       d="m -72.041343,400.7504 c -0.08026,0.0321 -0.20245,0.0621 -0.366808,0.0902 -0.164368,0.028 -0.360807,0.0441 -0.589319,0.0481 -0.300662,0 -0.561246,-0.0372 -0.781736,-0.11125 -0.220495,-0.0741 -0.403901,-0.18041 -0.550219,-0.31871 -0.146332,-0.13831 -0.255572,-0.30569 -0.327742,-0.50212 -0.07211,-0.19644 -0.108275,-0.41493 -0.108275,-0.65545 l 0,-3.47574 -1.100458,0 0,-0.79978 1.100458,0 0,-1.56349 0.932066,0 0,1.56349 1.707813,0 0,0.79978 -1.707813,0 0,3.33142 c 0,0.13229 0.01908,0.25456 0.05711,0.36682 0.03806,0.11224 0.09824,0.20945 0.180401,0.29163 0.08224,0.0822 0.18741,0.14635 0.315703,0.19242 0.128277,0.0462 0.282622,0.0692 0.463033,0.0692 0.124264,0 0.255567,-0.01 0.393878,-0.03 0.138296,-0.0201 0.265585,-0.0462 0.381858,-0.0782 z" />
    <path
       inkscape:connector-curvature="0"
       id="path5551"
       style="font-size:24px;font-style:normal;font-variant:normal;font-weight:normal;font-stretch:normal;line-height:0%;letter-spacing:0px;word-spacing:0px;fill:#000000;fill-opacity:1;stroke:none;font-family:Corbel;-inkscape-font-specification:Corbel"
       d="m -70.712378,400.73836 0,-5.71271 0.932077,0 0,5.71271 z m -0.02412,-7.04167 0,-1.04032 0.980182,0 0,1.04032 z" />
    <path
       inkscape:connector-curvature="0"
       id="path5553"
       style="font-size:24px;font-style:normal;font-variant:normal;font-weight:normal;font-stretch:normal;line-height:0%;letter-spacing:0px;word-spacing:0px;fill:#000000;fill-opacity:1;stroke:none;font-family:Corbel;-inkscape-font-specification:Corbel"
       d="m -63.790958,397.88802 c -10e-6,-0.35279 -0.0431,-0.66649 -0.129306,-0.94111 -0.08621,-0.2746 -0.206458,-0.50711 -0.360792,-0.69754 -0.154345,-0.19042 -0.337766,-0.33473 -0.550234,-0.43297 -0.212473,-0.0982 -0.444989,-0.14733 -0.697545,-0.14733 -0.252572,0 -0.485087,0.0492 -0.697556,0.14733 -0.212473,0.0982 -0.395879,0.24255 -0.550224,0.43297 -0.154344,0.19043 -0.27462,0.42294 -0.360807,0.69754 -0.08611,0.27462 -0.129281,0.58832 -0.129281,0.94111 0,0.34877 0.0431,0.66048 0.129281,0.93509 0.08622,0.2746 0.207466,0.50612 0.363817,0.69453 0.156342,0.18842 0.340741,0.33176 0.553234,0.42996 0.212459,0.0982 0.444974,0.14733 0.697556,0.14733 0.252547,0 0.484058,-0.0491 0.694545,-0.14733 0.210451,-0.0982 0.392869,-0.24154 0.547214,-0.42996 0.154334,-0.18841 0.27461,-0.41993 0.360792,-0.69453 0.08612,-0.27461 0.129296,-0.58632 0.129306,-0.93509 z m 0.974162,0 c -1e-5,0.449 -0.06406,0.85792 -0.192436,1.22673 -0.128283,0.36882 -0.309692,0.68451 -0.544204,0.9471 -0.234532,0.2626 -0.518172,0.46605 -0.850896,0.61036 -0.332744,0.14434 -0.705572,0.2165 -1.118483,0.2165 -0.424962,0 -0.804813,-0.0721 -1.139544,-0.2165 -0.334741,-0.14431 -0.619384,-0.34776 -0.853906,-0.61036 -0.234522,-0.26259 -0.413915,-0.57828 -0.538194,-0.9471 -0.124289,-0.36881 -0.186416,-0.77773 -0.186416,-1.22673 0,-0.453 0.06406,-0.86393 0.192436,-1.23275 0.128283,-0.36881 0.309682,-0.68552 0.544204,-0.95011 0.234522,-0.26459 0.519151,-0.46905 0.853896,-0.61336 0.334751,-0.14432 0.708582,-0.21648 1.121504,-0.21648 0.420928,0 0.79978,0.0721 1.136533,0.21648 0.336737,0.14431 0.621381,0.34877 0.853896,0.61336 0.232515,0.26459 0.410905,0.5813 0.535184,0.95011 0.124279,0.36882 0.186416,0.77975 0.186426,1.23275 z" />
    <path
       inkscape:connector-curvature="0"
       id="path5555"
       style="font-size:24px;font-style:normal;font-variant:normal;font-weight:normal;font-stretch:normal;line-height:0%;letter-spacing:0px;word-spacing:0px;fill:#000000;fill-opacity:1;stroke:none;font-family:Corbel;-inkscape-font-specification:Corbel"
       d="m -60.441513,395.81941 0.01809,0 c 0.104228,-0.13229 0.219487,-0.25556 0.345763,-0.36982 0.126291,-0.11425 0.267607,-0.21447 0.423958,-0.30067 0.156341,-0.0861 0.327717,-0.15335 0.514144,-0.20144 0.186411,-0.0481 0.389859,-0.0721 0.610349,-0.0721 0.260584,0 0.505129,0.036 0.733631,0.10828 0.228511,0.0721 0.426958,0.18841 0.595324,0.34877 0.168371,0.16035 0.30168,0.36982 0.399893,0.62839 0.09824,0.25859 0.147321,0.5763 0.147331,0.95312 l 0,3.82452 -0.932067,0 0,-3.67418 c -1e-5,-0.4931 -0.09525,-0.84788 -0.285642,-1.06437 -0.19043,-0.21648 -0.46805,-0.32472 -0.832851,-0.32472 -0.320719,0 -0.631415,0.0892 -0.932077,0.26759 -0.300682,0.17841 -0.559249,0.42394 -0.775736,0.73663 l 0,4.05905 -0.932066,0 0,-5.7127 0.721605,0 z" />
    <path
       inkscape:connector-curvature="0"
       id="path5557"
       style="font-size:24px;font-style:normal;font-variant:normal;font-weight:normal;font-stretch:normal;line-height:0%;letter-spacing:0px;word-spacing:0px;fill:#000000;fill-opacity:1;stroke:none;font-family:Corbel;-inkscape-font-specification:Corbel"
       d="m -52.251278,400.73836 0,-8.04592 0.980182,0 0,8.04592 z" />
    <path
       inkscape:connector-curvature="0"
       id="path5559"
       style="font-size:24px;font-style:normal;font-variant:normal;font-weight:normal;font-stretch:normal;line-height:0%;letter-spacing:0px;word-spacing:0px;fill:#000000;fill-opacity:1;stroke:none;font-family:Corbel;-inkscape-font-specification:Corbel"
       d="m -48.438781,395.81941 0.01809,0 c 0.104227,-0.13229 0.219486,-0.25556 0.345767,-0.36982 0.126276,-0.11425 0.267597,-0.21447 0.423939,-0.30067 0.156351,-0.0861 0.327732,-0.15335 0.514148,-0.20144 0.186407,-0.0481 0.38986,-0.0721 0.610355,-0.0721 0.260578,0 0.505119,0.036 0.733645,0.10828 0.228502,0.0721 0.426938,0.18841 0.595324,0.34877 0.168372,0.16035 0.301656,0.36982 0.399893,0.62839 0.09823,0.25859 0.147312,0.5763 0.147331,0.95312 l 0,3.82452 -0.932086,0 0,-3.67418 c -1e-5,-0.4931 -0.09525,-0.84788 -0.285637,-1.06437 -0.19043,-0.21648 -0.468036,-0.32472 -0.832856,-0.32472 -0.32071,0 -0.631405,0.0892 -0.932067,0.26759 -0.300673,0.17841 -0.559244,0.42394 -0.775726,0.73663 l 0,4.05905 -0.932087,0 0,-5.7127 0.72161,0 z" />
    <path
       inkscape:connector-curvature="0"
       id="path5561"
       style="font-size:24px;font-style:normal;font-variant:normal;font-weight:normal;font-stretch:normal;line-height:0%;letter-spacing:0px;word-spacing:0px;fill:#000000;fill-opacity:1;stroke:none;font-family:Corbel;-inkscape-font-specification:Corbel"
       d="m -42.786199,400.73836 0,-5.71271 0.932067,0 0,5.71271 z m -0.02412,-7.04167 0,-1.04032 0.980177,0 0,1.04032 z" />
    <path
       inkscape:connector-curvature="0"
       id="path5563"
       style="font-size:24px;font-style:normal;font-variant:normal;font-weight:normal;font-stretch:normal;line-height:0%;letter-spacing:0px;word-spacing:0px;fill:#000000;fill-opacity:1;stroke:none;font-family:Corbel;-inkscape-font-specification:Corbel"
       d="m -36.971267,400.7504 c -0.08026,0.0321 -0.20245,0.0621 -0.366803,0.0902 -0.164367,0.028 -0.360807,0.0441 -0.589319,0.0481 -0.300662,0 -0.561251,-0.0372 -0.781736,-0.11125 -0.220494,-0.0741 -0.403906,-0.18041 -0.550224,-0.31871 -0.146337,-0.13831 -0.255566,-0.30569 -0.327737,-0.50212 -0.07221,-0.19644 -0.10828,-0.41493 -0.10828,-0.65545 l 0,-3.47574 -1.100453,0 0,-0.79978 1.100453,0 0,-1.56349 0.932067,0 0,1.56349 1.707812,0 0,0.79978 -1.707812,0 0,3.33142 c 0,0.13229 0.01908,0.25456 0.05712,0.36682 0.03806,0.11224 0.09823,0.20945 0.180407,0.29163 0.08214,0.0822 0.187399,0.14635 0.315702,0.19242 0.128282,0.0462 0.282627,0.0692 0.463023,0.0692 0.124279,0 0.255572,-0.01 0.393883,-0.03 0.138291,-0.0201 0.26558,-0.0462 0.381853,-0.0782 z" />
    <path
       inkscape:connector-curvature="0"
       id="path5565"
       style="font-size:24px;font-style:normal;font-variant:normal;font-weight:normal;font-stretch:normal;line-height:0%;letter-spacing:0px;word-spacing:0px;fill:#000000;fill-opacity:1;stroke:none;font-family:Corbel;-inkscape-font-specification:Corbel"
       d="m -35.642297,400.73836 0,-5.71271 0.932077,0 0,5.71271 z m -0.02412,-7.04167 0,-1.04032 0.980178,0 0,1.04032 z" />
    <path
       inkscape:connector-curvature="0"
       id="path5567"
       style="font-size:24px;font-style:normal;font-variant:normal;font-weight:normal;font-stretch:normal;line-height:0%;letter-spacing:0px;word-spacing:0px;fill:#000000;fill-opacity:1;stroke:none;font-family:Corbel;-inkscape-font-specification:Corbel"
       d="m -29.496612,400.10696 -0.02412,0 c -0.07618,0.0962 -0.172389,0.19142 -0.288642,0.28564 -0.116272,0.0942 -0.250575,0.1784 -0.402893,0.25255 -0.152357,0.0741 -0.318722,0.13329 -0.499118,0.17739 -0.180397,0.0441 -0.372833,0.0661 -0.57728,0.0661 -0.276627,0 -0.530202,-0.0411 -0.7607,-0.12328 -0.230509,-0.0822 -0.428955,-0.20245 -0.595324,-0.3608 -0.166375,-0.15834 -0.295661,-0.35178 -0.387863,-0.58029 -0.09218,-0.22852 -0.138306,-0.48708 -0.138306,-0.77573 0,-0.28464 0.05106,-0.53919 0.153331,-0.76371 0.10226,-0.2245 0.245558,-0.41492 0.429958,-0.57127 0.18441,-0.15633 0.405903,-0.2766 0.66448,-0.36079 0.258567,-0.0841 0.544214,-0.12628 0.856916,-0.12629 0.296649,0.003 0.571259,0.0301 0.823831,0.0782 0.252557,0.0481 0.47706,0.10828 0.673495,0.18042 l 0.02412,0 0,-0.39688 c 0,-0.15635 -0.0099,-0.29466 -0.03,-0.41493 -0.02007,-0.12027 -0.05413,-0.22651 -0.10225,-0.31873 -0.104232,-0.19241 -0.270607,-0.35176 -0.499119,-0.47805 -0.228501,-0.12626 -0.53719,-0.18942 -0.926046,-0.18942 -0.288643,0 -0.560253,0.0271 -0.814821,0.0813 -0.254574,0.054 -0.508139,0.1293 -0.760686,0.22551 l 0,-0.78175 c 0.09624,-0.0481 0.209458,-0.0931 0.339748,-0.13529 0.130289,-0.0421 0.267597,-0.0782 0.411918,-0.10829 0.144326,-0.03 0.296663,-0.0531 0.457028,-0.0692 0.160339,-0.0161 0.320704,-0.0241 0.481068,-0.0241 0.57727,2e-5 1.049323,0.10226 1.416141,0.30669 0.366822,0.20446 0.630406,0.47507 0.79077,0.81181 0.0602,0.12827 0.103244,0.26959 0.129286,0.42394 0.02615,0.15435 0.03915,0.32372 0.03915,0.50813 l 0,3.81249 -0.781736,0 z m -0.04809,-1.87618 c -0.172394,-0.0481 -0.376836,-0.0942 -0.613374,-0.13831 -0.236529,-0.0441 -0.497102,-0.0681 -0.781736,-0.0721 -0.396883,10e-6 -0.707569,0.0841 -0.932067,0.25256 -0.224508,0.16838 -0.336757,0.42696 -0.336757,0.77573 0,0.1764 0.02812,0.33075 0.08413,0.46304 0.05612,0.13229 0.133309,0.24154 0.231522,0.32772 0.09824,0.0861 0.21447,0.15034 0.348767,0.19244 0.134313,0.0421 0.277621,0.0632 0.429968,0.0632 0.200444,0 0.38685,-0.0289 0.559254,-0.0871 0.172385,-0.0581 0.325716,-0.12727 0.460014,-0.20746 0.134302,-0.0803 0.248558,-0.16035 0.342757,-0.24054 0.09426,-0.0803 0.163365,-0.14231 0.207467,-0.1864 z" />
    <path
       inkscape:connector-curvature="0"
       id="path5569"
       style="font-size:24px;font-style:normal;font-variant:normal;font-weight:normal;font-stretch:normal;line-height:0%;letter-spacing:0px;word-spacing:0px;fill:#000000;fill-opacity:1;stroke:none;font-family:Corbel;-inkscape-font-specification:Corbel"
       d="m -23.789906,400.7504 c -0.08026,0.0321 -0.202459,0.0621 -0.366817,0.0902 -0.164378,0.028 -0.360818,0.0441 -0.58932,0.0481 -0.300672,0 -0.561245,-0.0372 -0.781735,-0.11125 -0.220495,-0.0741 -0.403892,-0.18041 -0.550229,-0.31871 -0.146323,-0.13831 -0.255572,-0.30569 -0.327723,-0.50212 -0.07211,-0.19644 -0.108285,-0.41493 -0.108285,-0.65545 l 0,-3.47574 -1.100448,0 0,-0.79978 1.100448,0 0,-1.56349 0.932077,0 0,1.56349 1.707792,0 0,0.79978 -1.707792,0 0,3.33142 c 0,0.13229 0.01908,0.25456 0.05711,0.36682 0.03806,0.11224 0.09824,0.20945 0.180402,0.29163 0.08224,0.0822 0.187419,0.14635 0.315712,0.19242 0.128268,0.0462 0.282612,0.0692 0.463023,0.0692 0.124265,0 0.255567,-0.01 0.393868,-0.03 0.138316,-0.0201 0.265605,-0.0462 0.381858,-0.0782 z" />
    <path
       inkscape:connector-curvature="0"
       id="path5571"
       style="font-size:24px;font-style:normal;font-variant:normal;font-weight:normal;font-stretch:normal;line-height:0%;letter-spacing:0px;word-spacing:0px;fill:#000000;fill-opacity:1;stroke:none;font-family:Corbel;-inkscape-font-specification:Corbel"
       d="m -22.460961,400.73836 0,-5.71271 0.932077,0 0,5.71271 z m -0.02412,-7.04167 0,-1.04032 0.980192,0 0,1.04032 z" />
    <path
       inkscape:connector-curvature="0"
       id="path5573"
       style="font-size:24px;font-style:normal;font-variant:normal;font-weight:normal;font-stretch:normal;line-height:0%;letter-spacing:0px;word-spacing:0px;fill:#000000;fill-opacity:1;stroke:none;font-family:Corbel;-inkscape-font-specification:Corbel"
       d="m -17.710366,399.79427 c 0.136289,-0.41694 0.320709,-0.94812 0.553224,-1.59355 l 1.130513,-3.17507 0.974172,0 -2.176836,5.71271 -0.974182,0 -2.176846,-5.71271 0.962142,0 1.130524,3.17507 c 0.224498,0.62539 0.408898,1.15658 0.553234,1.59355 z" />
    <path
       inkscape:connector-curvature="0"
       id="path5575"
       style="font-size:24px;font-style:normal;font-variant:normal;font-weight:normal;font-stretch:normal;line-height:0%;letter-spacing:0px;word-spacing:0px;fill:#000000;fill-opacity:1;stroke:none;font-family:Corbel;-inkscape-font-specification:Corbel"
       d="m -11.721042,395.67509 c -0.212474,0 -0.409907,0.042 -0.59231,0.12627 -0.182423,0.0841 -0.341764,0.19845 -0.478073,0.34277 -0.136295,0.14432 -0.246547,0.31371 -0.330738,0.50813 -0.08413,0.19444 -0.136299,0.40191 -0.156341,0.62239 l 2.886421,0 c 0,-0.22449 -0.02901,-0.43396 -0.08721,-0.62841 -0.05811,-0.19441 -0.143323,-0.3638 -0.255572,-0.50811 -0.112249,-0.14432 -0.25056,-0.25758 -0.414918,-0.33977 -0.164378,-0.0822 -0.354798,-0.12327 -0.571279,-0.12327 z m 0.511148,4.4018 c 0.308679,0 0.590298,-0.0252 0.844876,-0.0752 0.254564,-0.0501 0.5081292,-0.12124 0.7606861,-0.21347 l 0,0.77572 c -0.2044515,0.10029 -0.4570231,0.1794 -0.7576851,0.23754 -0.300673,0.0581 -0.623378,0.0871 -0.968153,0.0871 -0.408913,0 -0.792772,-0.0521 -1.151563,-0.15635 -0.358796,-0.10412 -0.672502,-0.27262 -0.941092,-0.50513 -0.26859,-0.23253 -0.48007,-0.53619 -0.634414,-0.91103 -0.154345,-0.37484 -0.231512,-0.82685 -0.231512,-1.35602 0,-0.52115 0.07211,-0.97316 0.216471,-1.35602 0.144326,-0.38284 0.336763,-0.70257 0.57729,-0.95914 0.240541,-0.25657 0.517148,-0.44899 0.829851,-0.57728 0.312692,-0.12828 0.639421,-0.19242 0.980182,-0.19242 0.320709,0 0.620378,0.0531 0.899001,0.15934 0.278614,0.10621 0.520154,0.27361 0.724611,0.50214 0.2044562,0.2285 0.3658141,0.52316 0.4840832,0.88395 0.1182592,0.36081 0.1773864,0.79377 0.1773864,1.2989 0,0.0481 0,0.0892 0,0.12327 0,0.0341 -0.00198,0.11125 -0.00598,0.23151 l -3.9207246,0 c 0,0.36483 0.05513,0.6745 0.165372,0.92906 0.110242,0.25459 0.260573,0.46104 0.451003,0.61939 0.19042,0.15836 0.41392,0.27361 0.67049,0.34578 0.25657,0.0721 0.533177,0.10817 0.829851,0.10817 z" />
    <text
       xml:space="preserve"
       style="font-size:56px;font-style:normal;font-weight:normal;line-height:125%;letter-spacing:0px;word-spacing:0px;fill:#000000;fill-opacity:1;stroke:none;font-family:Sans;-inkscape-font-specification:Sans"
       x="535.88593"
       y="167.61925"
       id="text3872"
       sodipodi:linespacing="125%"
       transform="translate(-336.78125,144.15625)"><tspan
         sodipodi:role="line"
         id="tspan3876"
         x="535.88593"
         y="167.61925" /></text>
    <path
       sodipodi:type="arc"
       style="fill:#3771c8;stroke:none"
       id="path3016-9"
       sodipodi:cx="62.5"
       sodipodi:cy="137.5"
       sodipodi:rx="12.5"
       sodipodi:ry="12.5"
       d="M 75,137.5 C 75,144.40356 69.403559,150 62.5,150 55.596441,150 50,144.40356 50,137.5 50,130.59644 55.596441,125 62.5,125 c 6.903559,0 12.5,5.59644 12.5,12.5 z"
       transform="matrix(0.38356271,0.34087364,-0.34087364,0.38356271,-231.15522,279.75323)" />
    <path
       sodipodi:type="arc"
       style="fill:#3771c8;fill-opacity:1;stroke:none"
       id="path3012-4"
       sodipodi:cx="62.5"
       sodipodi:cy="67.5"
       sodipodi:rx="12.5"
       sodipodi:ry="12.5"
       d="M 75,67.5 C 75,74.403559 69.403559,80 62.5,80 55.596441,80 50,74.403559 50,67.5 50,60.596441 55.596441,55 62.5,55 69.403559,55 75,60.596441 75,67.5 z"
       transform="matrix(0.38356271,0.34087364,-0.34087364,0.38356271,-239.67705,289.34228)" />
    <path
       sodipodi:type="arc"
       style="fill:#000000;fill-opacity:0.62264153;stroke:none"
       id="path3014-8"
       sodipodi:cx="62.5"
       sodipodi:cy="102.5"
       sodipodi:rx="22.5"
       sodipodi:ry="22.5"
       d="M 85,102.5 C 85,114.92641 74.926407,125 62.5,125 50.073593,125 40,114.92641 40,102.5 40,90.073593 50.073593,80 62.5,80 74.926407,80 85,90.073593 85,102.5 z"
       transform="matrix(0.29832652,0.26512391,-0.26512397,0.29832657,-237.85322,298.01883)" />
    <path
       sodipodi:type="arc"
       style="fill:#3771c8;stroke:none"
       id="path3016-8"
       sodipodi:cx="62.5"
       sodipodi:cy="137.5"
       sodipodi:rx="12.5"
       sodipodi:ry="12.5"
       d="M 75,137.5 C 75,144.40356 69.403559,150 62.5,150 55.596441,150 50,144.40356 50,137.5 50,130.59644 55.596441,125 62.5,125 c 6.903559,0 12.5,5.59644 12.5,12.5 z"
       transform="matrix(-0.1093409,-0.50135791,0.50135791,-0.1093409,-353.07666,420.62776)" />
    <path
       sodipodi:type="arc"
       style="fill:#3771c8;fill-opacity:1;stroke:none"
       id="path3012-2"
       sodipodi:cx="62.5"
       sodipodi:cy="67.5"
       sodipodi:rx="12.5"
       sodipodi:ry="12.5"
       d="M 75,67.5 C 75,74.403559 69.403559,80 62.5,80 55.596441,80 50,74.403559 50,67.5 50,60.596441 55.596441,55 62.5,55 69.403559,55 75,60.596441 75,67.5 z"
       transform="matrix(-0.1093409,-0.50135791,0.50135791,-0.1093409,-340.54271,417.89425)" />
    <path
       sodipodi:type="arc"
       style="fill:#000000;fill-opacity:0.62264153;stroke:none"
       id="path3014-4"
       sodipodi:cx="62.5"
       sodipodi:cy="102.5"
       sodipodi:rx="22.5"
       sodipodi:ry="22.5"
       d="M 85,102.5 C 85,114.92641 74.926407,125 62.5,125 50.073593,125 40,114.92641 40,102.5 40,90.073593 50.073593,80 62.5,80 74.926407,80 85,90.073593 85,102.5 z"
       transform="matrix(-0.08504292,-0.38994499,0.38994507,-0.08504294,-336.9085,409.80716)" />
    <path
       sodipodi:type="arc"
       style="fill:#3771c8;stroke:none"
       id="path3016-5"
       sodipodi:cx="62.5"
       sodipodi:cy="137.5"
       sodipodi:rx="12.5"
       sodipodi:ry="12.5"
       d="M 75,137.5 C 75,144.40356 69.403559,150 62.5,150 55.596441,150 50,144.40356 50,137.5 50,130.59644 55.596441,125 62.5,125 c 6.903559,0 12.5,5.59644 12.5,12.5 z"
       transform="matrix(-0.21084823,0.46782285,-0.46782285,-0.21084823,-169.97619,378.41984)" />
    <path
       sodipodi:type="arc"
       style="fill:#3771c8;fill-opacity:1;stroke:none"
       id="path3012-5"
       sodipodi:cx="62.5"
       sodipodi:cy="67.5"
       sodipodi:rx="12.5"
       sodipodi:ry="12.5"
       d="M 75,67.5 C 75,74.403559 69.403559,80 62.5,80 55.596441,80 50,74.403559 50,67.5 50,60.596441 55.596441,55 62.5,55 69.403559,55 75,60.596441 75,67.5 z"
       transform="matrix(-0.21084823,0.46782285,-0.46782285,-0.21084823,-181.67175,373.14864)" />
    <path
       sodipodi:type="arc"
       style="fill:#000000;fill-opacity:0.62264153;stroke:none"
       id="path3014-1"
       sodipodi:cx="62.5"
       sodipodi:cy="102.5"
       sodipodi:rx="22.5"
       sodipodi:ry="22.5"
       d="M 85,102.5 C 85,114.92641 74.926407,125 62.5,125 50.073593,125 40,114.92641 40,102.5 40,90.073593 50.073593,80 62.5,80 74.926407,80 85,90.073593 85,102.5 z"
       transform="matrix(-0.16399305,0.36386216,-0.36386223,-0.16399307,-189.40838,377.47914)" />
    <path
       sodipodi:type="arc"
       style="fill:#3771c8;stroke:none"
       id="path3016-7"
       sodipodi:cx="62.5"
       sodipodi:cy="137.5"
       sodipodi:rx="12.5"
       sodipodi:ry="12.5"
       d="M 75,137.5 C 75,144.40356 69.403559,150 62.5,150 55.596441,150 50,144.40356 50,137.5 50,130.59644 55.596441,125 62.5,125 c 6.903559,0 12.5,5.59644 12.5,12.5 z"
       transform="matrix(-0.51074293,-0.04956668,0.04956668,-0.51074293,-245.95011,466.32028)" />
    <path
       sodipodi:type="arc"
       style="fill:#3771c8;fill-opacity:1;stroke:none"
       id="path3012-1"
       sodipodi:cx="62.5"
       sodipodi:cy="67.5"
       sodipodi:rx="12.5"
       sodipodi:ry="12.5"
       d="M 75,67.5 C 75,74.403559 69.403559,80 62.5,80 55.596441,80 50,74.403559 50,67.5 50,60.596441 55.596441,55 62.5,55 69.403559,55 75,60.596441 75,67.5 z"
       transform="matrix(-0.51074293,-0.04956668,0.04956668,-0.51074293,-244.71095,453.5517)" />
    <path
       sodipodi:type="arc"
       style="fill:#000000;fill-opacity:0.62264153;stroke:none"
       id="path3014-15"
       sodipodi:cx="62.5"
       sodipodi:cy="102.5"
       sodipodi:rx="22.5"
       sodipodi:ry="22.5"
       d="M 85,102.5 C 85,114.92641 74.926407,125 62.5,125 50.073593,125 40,114.92641 40,102.5 40,90.073593 50.073593,80 62.5,80 74.926407,80 85,90.073593 85,102.5 z"
       transform="matrix(-0.39724444,-0.03855186,0.03855186,-0.39724453,-251.29517,447.61398)" />
    <text
       xml:space="preserve"
       style="font-size:12px;font-style:normal;font-weight:normal;line-height:125%;letter-spacing:0px;word-spacing:0px;fill:#000000;fill-opacity:1;stroke:none;font-family:Sans;-inkscape-font-specification:Sans"
       x="-309.46875"
       y="171.84375"
       id="text3765"
       sodipodi:linespacing="125%"><tspan
         sodipodi:role="line"
         id="tspan3767"
         x="-309.46875"
         y="171.84375"
         style="font-size:18px" /><tspan
         sodipodi:role="line"
         x="-309.46875"
         y="194.34375"
         id="tspan3769" /></text>
  </g>
</svg>
