<?xml version="1.0" encoding="UTF-8" standalone="no"?>
<!-- Created with Inkscape (http://www.inkscape.org/) -->

<svg
   xmlns:dc="http://purl.org/dc/elements/1.1/"
   xmlns:cc="http://creativecommons.org/ns#"
   xmlns:rdf="http://www.w3.org/1999/02/22-rdf-syntax-ns#"
   xmlns:svg="http://www.w3.org/2000/svg"
   xmlns="http://www.w3.org/2000/svg"
   xmlns:sodipodi="http://sodipodi.sourceforge.net/DTD/sodipodi-0.dtd"
   xmlns:inkscape="http://www.inkscape.org/namespaces/inkscape"
   width="24"
   height="24"
   id="svg2"
   version="1.1"
   inkscape:version="0.48.4 r9939"
   sodipodi:docname="center.svg"
   inkscape:export-filename="C:\Documents and Settings\jeslick\Desktop\OptGUIQt\addNode.png"
   inkscape:export-xdpi="90"
   inkscape:export-ydpi="90">
  <defs
     id="defs4" />
  <sodipodi:namedview
     id="base"
     pagecolor="#ffffff"
     bordercolor="#666666"
     borderopacity="1.0"
     inkscape:pageopacity="0.0"
     inkscape:pageshadow="2"
     inkscape:zoom="29.291667"
     inkscape:cx="19.183584"
     inkscape:cy="12.668123"
     inkscape:document-units="px"
     inkscape:current-layer="layer1"
     showgrid="true"
     inkscape:window-width="1793"
     inkscape:window-height="961"
     inkscape:window-x="1983"
     inkscape:window-y="53"
     inkscape:window-maximized="0">
    <inkscape:grid
       type="xygrid"
       id="grid2985"
       empspacing="6"
       visible="true"
       enabled="true"
       snapvisiblegridlinesonly="true" />
  </sodipodi:namedview>
  <metadata
     id="metadata7">
    <rdf:RDF>
      <cc:Work
         rdf:about="">
        <dc:format>image/svg+xml</dc:format>
        <dc:type
           rdf:resource="http://purl.org/dc/dcmitype/StillImage" />
        <dc:title />
      </cc:Work>
    </rdf:RDF>
  </metadata>
  <g
     inkscape:label="Layer 1"
     inkscape:groupmode="layer"
     id="layer1"
     transform="translate(0,-1028.3622)">
    <path
       style="fill:#ff0000;fill-opacity:1;stroke:#000000;stroke-width:0.50000000000000000;stroke-miterlimit:4;stroke-opacity:1;stroke-dasharray:none"
       d="m 11,1 0,6 -4,0 0,4 -6,0 0,2 6,0 0,4 4,0 0,6 2,0 0,-6 4,0 0,-4 6,0 0,-2 -6,0 0,-4 -4,0 0,-6 z m -3,7 3,0 0,3 -3,0 z m 5,0 3,0 0,3 -3,0 z m -5,5 3,0 0,3 -3,0 z m 5,0 3,0 0,3 -3,0 z"
       transform="translate(0,1028.3622)"
       id="rect4839"
       inkscape:connector-curvature="0"
       sodipodi:nodetypes="ccccccccccccccccccccccccccccccccccccccccc" />
  </g>
</svg>
