<?xml version="1.0" encoding="UTF-8" standalone="no"?>
<!-- Created with Inkscape (http://www.inkscape.org/) -->

<svg
   xmlns:dc="http://purl.org/dc/elements/1.1/"
   xmlns:cc="http://creativecommons.org/ns#"
   xmlns:rdf="http://www.w3.org/1999/02/22-rdf-syntax-ns#"
   xmlns:svg="http://www.w3.org/2000/svg"
   xmlns="http://www.w3.org/2000/svg"
   xmlns:sodipodi="http://sodipodi.sourceforge.net/DTD/sodipodi-0.dtd"
   xmlns:inkscape="http://www.inkscape.org/namespaces/inkscape"
   width="24"
   height="24"
   id="svg2"
   version="1.1"
   inkscape:version="0.48.2 r9819"
   sodipodi:docname="delete.svg">
  <defs
     id="defs4" />
  <sodipodi:namedview
     id="base"
     pagecolor="#ffffff"
     bordercolor="#666666"
     borderopacity="1.0"
     inkscape:pageopacity="0.0"
     inkscape:pageshadow="2"
     inkscape:zoom="29.291667"
     inkscape:cx="6.3840683"
     inkscape:cy="12"
     inkscape:document-units="px"
     inkscape:current-layer="layer1"
     showgrid="true"
     inkscape:window-width="1459"
     inkscape:window-height="961"
     inkscape:window-x="70"
     inkscape:window-y="16"
     inkscape:window-maximized="0">
    <inkscape:grid
       type="xygrid"
       id="grid2985"
       empspacing="6"
       visible="true"
       enabled="true"
       snapvisiblegridlinesonly="true" />
  </sodipodi:namedview>
  <metadata
     id="metadata7">
    <rdf:RDF>
      <cc:Work
         rdf:about="">
        <dc:format>image/svg+xml</dc:format>
        <dc:type
           rdf:resource="http://purl.org/dc/dcmitype/StillImage" />
        <dc:title />
      </cc:Work>
    </rdf:RDF>
  </metadata>
  <g
     inkscape:label="Layer 1"
     inkscape:groupmode="layer"
     id="layer1"
     transform="translate(0,-1028.3622)">
    <path
       style="fill:#ff0000;fill-opacity:1;stroke:#000000;stroke-width:0.5;stroke-miterlimit:4;stroke-opacity:1;stroke-dasharray:none"
       d="m 4.2218001,1048.1404 c 4.2958,4.2957 11.2605999,4.2957 15.5563999,0 4.2957,-4.2958 4.2957,-11.2606 0,-15.5564 -4.2958,-4.2957 -11.2605999,-4.2957 -15.5563999,0 -4.29569996,4.2958 -4.29569996,11.2606 0,15.5564 z m 3.5356,-3.5356 c -1.8477,-1.8476 -2.2374,-4.5974 -1.1712,-6.828 l 7.9991999,7.9992 c -2.2306,1.0662 -4.9803999,0.6765 -6.8279999,-1.1712 z m 9.6563999,-1.6572 -7.9991999,-7.9992 c 2.2305999,-1.0662 4.9803999,-0.6765 6.8279999,1.1712 1.8477,1.8476 2.2374,4.5975 1.1712,6.828 z"
       id="path3797"
       inkscape:connector-curvature="0" />
  </g>
</svg>
