<?xml version="1.0" encoding="UTF-8" standalone="no"?>
<!-- Created with Inkscape (http://www.inkscape.org/) -->

<svg
   xmlns:dc="http://purl.org/dc/elements/1.1/"
   xmlns:cc="http://creativecommons.org/ns#"
   xmlns:rdf="http://www.w3.org/1999/02/22-rdf-syntax-ns#"
   xmlns:svg="http://www.w3.org/2000/svg"
   xmlns="http://www.w3.org/2000/svg"
   xmlns:sodipodi="http://sodipodi.sourceforge.net/DTD/sodipodi-0.dtd"
   xmlns:inkscape="http://www.inkscape.org/namespaces/inkscape"
   width="48"
   height="48"
   id="svg2"
   version="1.1"
   inkscape:version="0.48.4 r9939"
   sodipodi:docname="drm48.svg"
   inkscape:export-filename="C:\Documents and Settings\jeslick\Desktop\OptGUI\icons\add.png"
   inkscape:export-xdpi="90"
   inkscape:export-ydpi="90">
  <defs
     id="defs4">
    <marker
       inkscape:stockid="Arrow2Sstart"
       orient="auto"
       refY="0.0"
       refX="0.0"
       id="Arrow2Sstart"
       style="overflow:visible">
      <path
         id="path5848"
         style="fill-rule:evenodd;stroke-width:0.62500000;stroke-linejoin:round"
         d="M 8.7185878,4.0337352 L -2.2072895,0.016013256 L 8.7185884,-4.0017078 C 6.9730900,-1.6296469 6.9831476,1.6157441 8.7185878,4.0337352 z "
         transform="scale(0.3) translate(-2.3,0)" />
    </marker>
    <marker
       inkscape:stockid="Arrow1Mstart"
       orient="auto"
       refY="0.0"
       refX="0.0"
       id="Arrow1Mstart"
       style="overflow:visible">
      <path
         id="path5824"
         d="M 0.0,0.0 L 5.0,-5.0 L -12.5,0.0 L 5.0,5.0 L 0.0,0.0 z "
         style="fill-rule:evenodd;stroke:#000000;stroke-width:1.0pt"
         transform="scale(0.4) translate(10,0)" />
    </marker>
    <marker
       inkscape:stockid="Arrow1Lstart"
       orient="auto"
       refY="0.0"
       refX="0.0"
       id="Arrow1Lstart"
       style="overflow:visible">
      <path
         id="path5818"
         d="M 0.0,0.0 L 5.0,-5.0 L -12.5,0.0 L 5.0,5.0 L 0.0,0.0 z "
         style="fill-rule:evenodd;stroke:#000000;stroke-width:1.0pt"
         transform="scale(0.8) translate(12.5,0)" />
    </marker>
    <marker
       inkscape:stockid="Arrow1Send"
       orient="auto"
       refY="0.0"
       refX="0.0"
       id="Arrow1Send"
       style="overflow:visible;">
      <path
         id="path4005"
         d="M 0.0,0.0 L 5.0,-5.0 L -12.5,0.0 L 5.0,5.0 L 0.0,0.0 z "
         style="fill-rule:evenodd;stroke:#000000;stroke-width:1.0pt;"
         transform="scale(0.2) rotate(180) translate(6,0)" />
    </marker>
    <marker
       inkscape:stockid="Arrow2Lend"
       orient="auto"
       refY="0.0"
       refX="0.0"
       id="Arrow2Lend"
       style="overflow:visible;">
      <path
         id="path4011"
         style="fill-rule:evenodd;stroke-width:0.62500000;stroke-linejoin:round;"
         d="M 8.7185878,4.0337352 L -2.2072895,0.016013256 L 8.7185884,-4.0017078 C 6.9730900,-1.6296469 6.9831476,1.6157441 8.7185878,4.0337352 z "
         transform="scale(1.1) rotate(180) translate(1,0)" />
    </marker>
    <marker
       inkscape:stockid="Arrow1Lend"
       orient="auto"
       refY="0.0"
       refX="0.0"
       id="Arrow1Lend"
       style="overflow:visible;">
      <path
         id="path3993"
         d="M 0.0,0.0 L 5.0,-5.0 L -12.5,0.0 L 5.0,5.0 L 0.0,0.0 z "
         style="fill-rule:evenodd;stroke:#000000;stroke-width:1.0pt;"
         transform="scale(0.8) rotate(180) translate(12.5,0)" />
    </marker>
  </defs>
  <sodipodi:namedview
     id="base"
     pagecolor="#ffffff"
     bordercolor="#666666"
     borderopacity="1.0"
     inkscape:pageopacity="0.0"
     inkscape:pageshadow="2"
     inkscape:zoom="15.757696"
     inkscape:cx="8.9776588"
     inkscape:cy="26.98535"
     inkscape:document-units="px"
     inkscape:current-layer="layer1"
     showgrid="true"
     inkscape:window-width="1920"
     inkscape:window-height="1138"
     inkscape:window-x="-8"
     inkscape:window-y="-8"
     inkscape:window-maximized="1">
    <inkscape:grid
       type="xygrid"
       id="grid2985"
       empspacing="6"
       visible="true"
       enabled="true"
       snapvisiblegridlinesonly="true" />
  </sodipodi:namedview>
  <metadata
     id="metadata7">
    <rdf:RDF>
      <cc:Work
         rdf:about="">
        <dc:format>image/svg+xml</dc:format>
        <dc:type
           rdf:resource="http://purl.org/dc/dcmitype/StillImage" />
        <dc:title></dc:title>
      </cc:Work>
    </rdf:RDF>
  </metadata>
  <g
     inkscape:label="Layer 1"
     inkscape:groupmode="layer"
     id="layer1"
     transform="translate(0,-1004.3622)">
    <path
       sodipodi:type="arc"
       style="fill:#d5ffe6;fill-opacity:1;stroke:#000000;stroke-width:1.25000000000000000;stroke-miterlimit:4;stroke-opacity:1;stroke-dasharray:none"
       id="path3001"
       sodipodi:cx="24"
       sodipodi:cy="24"
       sodipodi:rx="22"
       sodipodi:ry="22"
       d="M 46,24 C 46,36.150264 36.150264,46 24,46 11.849736,46 2,36.150264 2,24 2,11.849736 11.849736,2 24,2 36.150264,2 46,11.849736 46,24 z"
       transform="translate(0,1004.3622)" />
    <path
       style="fill:none;stroke:#000000;stroke-width:1px;stroke-linecap:butt;stroke-linejoin:miter;stroke-opacity:1;marker-start:url(#Arrow2Sstart);marker-end:url(#Arrow1Send)"
       d="m 11.963638,1015.1679 0,24 26,0"
       id="path5016"
       inkscape:connector-curvature="0" />
    <path
       style="fill:none;stroke:#0c0ce2;stroke-width:1px;stroke-linecap:butt;stroke-linejoin:miter;stroke-opacity:1"
       d="m 13,1038.3622 c 5,-5 3.73643,-23.8326 7,-16 5,12 18,14 18,14"
       id="path5018"
       inkscape:connector-curvature="0"
       sodipodi:nodetypes="csc" />
    <g
       style="font-size:10px;font-style:normal;font-weight:normal;text-align:center;line-height:125%;letter-spacing:0px;word-spacing:0px;text-anchor:middle;fill:#000000;fill-opacity:1;stroke:none;font-family:Sans"
       id="text5020">
      <path
         d="m 25.191406,1046.576 0.126953,0.7764 c -0.247398,0.052 -0.468752,0.078 -0.664062,0.078 -0.319012,0 -0.566408,-0.05 -0.742188,-0.1513 -0.175782,-0.1009 -0.29948,-0.2336 -0.371093,-0.398 -0.07162,-0.1644 -0.107423,-0.5102 -0.107422,-1.0376 l 0,-2.9834 -0.644532,0 0,-0.6836 0.644532,0 0,-1.2841 0.874023,-0.5274 0,1.8115 0.883789,0 0,0.6836 -0.883789,0 0,3.0323 c -2e-6,0.2506 0.01546,0.4117 0.04639,0.4834 0.03092,0.072 0.08138,0.1285 0.151367,0.1709 0.06998,0.042 0.170083,0.063 0.300293,0.063 0.09765,0 0.226235,-0.011 0.385742,-0.034 z"
         style=""
         id="path6846" />
    </g>
    <g
       style="font-size:10px;font-style:normal;font-weight:normal;text-align:center;line-height:125%;letter-spacing:0px;word-spacing:0px;text-anchor:middle;fill:#000000;fill-opacity:1;stroke:none;font-family:Sans"
       id="text5024">
      <path
         d="m 6.1201172,1031.3593 -0.097656,-0.8252 c 0.1920566,0.052 0.3596997,0.078 0.5029297,0.078 0.1953113,0 0.3515611,-0.033 0.46875,-0.098 0.1171859,-0.065 0.2132145,-0.1562 0.288086,-0.2734 0.055337,-0.088 0.1448548,-0.306 0.2685546,-0.6543 0.016274,-0.049 0.042316,-0.1205 0.078125,-0.2149 l -1.9677734,-5.1953 0.9472656,0 1.0791016,3.003 c 0.1399716,0.3808 0.265297,0.7812 0.3759766,1.2011 0.1009088,-0.4036 0.2213513,-0.7975 0.3613281,-1.1816 l 1.1083984,-3.0225 0.8789059,0 -1.9726559,5.2735 c -0.2115912,0.5696 -0.3759791,0.9619 -0.493164,1.1767 -0.1562523,0.2897 -0.3352886,0.5021 -0.5371094,0.6372 -0.2018246,0.1351 -0.4427098,0.2027 -0.7226563,0.2027 -0.1692718,0 -0.3580737,-0.036 -0.5664062,-0.1074 z"
         style=""
         id="path6843" />
    </g>
  </g>
</svg>
