<?xml version="1.0" encoding="UTF-8" standalone="no"?>
<!-- Created with Inkscape (http://www.inkscape.org/) -->

<svg
   xmlns:dc="http://purl.org/dc/elements/1.1/"
   xmlns:cc="http://creativecommons.org/ns#"
   xmlns:rdf="http://www.w3.org/1999/02/22-rdf-syntax-ns#"
   xmlns:svg="http://www.w3.org/2000/svg"
   xmlns="http://www.w3.org/2000/svg"
   xmlns:xlink="http://www.w3.org/1999/xlink"
   xmlns:sodipodi="http://sodipodi.sourceforge.net/DTD/sodipodi-0.dtd"
   xmlns:inkscape="http://www.inkscape.org/namespaces/inkscape"
   width="24"
   height="24"
   id="svg2"
   version="1.1"
   inkscape:version="0.48.2 r9819"
   sodipodi:docname="search.svg"
   inkscape:export-filename="C:\Documents and Settings\jeslick\Desktop\OptGUI\icons\add.png"
   inkscape:export-xdpi="90"
   inkscape:export-ydpi="90">
  <defs
     id="defs4">
    <linearGradient
       inkscape:collect="always"
       id="linearGradient3773">
      <stop
         style="stop-color:#afdde9;stop-opacity:1;"
         offset="0"
         id="stop3775" />
      <stop
         style="stop-color:#afdde9;stop-opacity:0;"
         offset="1"
         id="stop3777" />
    </linearGradient>
    <linearGradient
       inkscape:collect="always"
       xlink:href="#linearGradient3773"
       id="linearGradient3779"
       x1="2.9828388"
       y1="1037.0435"
       x2="13.570959"
       y2="1037.0435"
       gradientUnits="userSpaceOnUse"
       gradientTransform="matrix(0.70710678,0.70710678,-0.70710678,0.70710678,735.72476,297.89037)" />
  </defs>
  <sodipodi:namedview
     id="base"
     pagecolor="#ffffff"
     bordercolor="#666666"
     borderopacity="1.0"
     inkscape:pageopacity="0.0"
     inkscape:pageshadow="2"
     inkscape:zoom="29.291667"
     inkscape:cx="11.305536"
     inkscape:cy="12.316682"
     inkscape:document-units="px"
     inkscape:current-layer="layer1"
     showgrid="true"
     inkscape:window-width="1459"
     inkscape:window-height="961"
     inkscape:window-x="70"
     inkscape:window-y="16"
     inkscape:window-maximized="0">
    <inkscape:grid
       type="xygrid"
       id="grid2985"
       empspacing="6"
       visible="true"
       enabled="true"
       snapvisiblegridlinesonly="true" />
  </sodipodi:namedview>
  <metadata
     id="metadata7">
    <rdf:RDF>
      <cc:Work
         rdf:about="">
        <dc:format>image/svg+xml</dc:format>
        <dc:type
           rdf:resource="http://purl.org/dc/dcmitype/StillImage" />
        <dc:title />
      </cc:Work>
    </rdf:RDF>
  </metadata>
  <g
     inkscape:label="Layer 1"
     inkscape:groupmode="layer"
     id="layer1"
     transform="translate(0,-1028.3622)">
    <rect
       style="fill:#a05a2c;fill-opacity:1;stroke:#000000;stroke-width:0.62503575;stroke-linecap:butt;stroke-miterlimit:4;stroke-opacity:1;stroke-dasharray:none"
       id="rect2996"
       width="2.1980331"
       height="10.509398"
       x="-722.98505"
       y="741.62836"
       ry="1.0990165"
       transform="matrix(0.70173877,-0.71243435,0.70173877,0.71243435,0,0)" />
    <path
       style="fill:#d4aa00;fill-opacity:1;stroke:#000000;stroke-width:0.625;stroke-linecap:butt;stroke-miterlimit:4;stroke-opacity:1;stroke-dasharray:none"
       d="m 3.5200483,1032.2112 c -2.62851739,2.6685 -2.62851739,6.9951 0,9.6637 2.6285171,2.6686 6.8901857,2.6686 9.5187037,0 2.628518,-2.6686 2.628518,-6.9952 0,-9.6637 -2.628876,-2.6665 -6.8910528,-2.6678 -9.5187037,0 z m 0.7932253,0.8053 c 2.1897089,-2.2231 5.7415234,-2.2221 7.9322534,0 2.190432,2.2238 2.190432,5.8293 0,8.053 -2.190431,2.224 -5.741822,2.224 -7.9322534,0 -2.1904311,-2.2237 -2.1904311,-5.8292 0,-8.053 z"
       id="path2992"
       inkscape:connector-curvature="0" />
    <rect
       style="fill:#666666;fill-opacity:1;stroke:#000000;stroke-width:0.62503575;stroke-linecap:butt;stroke-miterlimit:4;stroke-opacity:1;stroke-dasharray:none"
       id="rect2994"
       width="4.5214849"
       height="2.2607424"
       x="-724.17816"
       y="740.49799"
       transform="matrix(0.70173877,-0.71243435,0.70173877,0.71243435,0,0)" />
    <path
       style="fill:url(#linearGradient3779);fill-opacity:1;stroke:#000000;stroke-width:0;stroke-linecap:butt;stroke-miterlimit:4;stroke-opacity:1;stroke-dasharray:none"
       d="m 7.7536976,1042.3686 c -2.3397914,-0.1906 -4.2525234,-1.913 -4.725663,-4.2554 -0.1037338,-0.5134 -0.1059422,-1.4186 -0.00497,-1.9559 0.425755,-2.2642 2.1989164,-3.9902 4.5133445,-4.3934 0.3511947,-0.061 1.1554629,-0.068 1.5452497,-0.014 1.9584193,0.2735 3.6233423,1.6453 4.2542183,3.5051 0.220687,0.6506 0.26475,0.9479 0.258626,1.7485 -0.0059,0.788 -0.05415,1.094 -0.270908,1.7192 -0.61267,1.7671 -2.169332,3.1537 -3.9747558,3.5405 -0.2666839,0.057 -1.0835429,0.152 -1.1973227,0.1391 -0.021715,-0 -0.2001756,-0.018 -0.3978133,-0.034 l 0,0 z"
       id="path3003"
       inkscape:connector-curvature="0" />
  </g>
</svg>
